<svg width="512" height="512" xmlns="http://www.w3.org/2000/svg">

 <g>
  <title>background</title>
  <rect fill="none" id="canvas_background" height="402" width="582" y="-1" x="-1"/>
 </g>
 <g>
  <title>Layer 1</title>
  <path id="svg_1" fill="#3c4257" d="m349.581,271l-32.324,0c-17.626,11 -37.641,15.273 -58.849,15.273c-21.208,0 -41.223,-4.273 -58.849,-15.273l-35.523,0c-42.402,0 -78.036,35.034 -78.036,77.437l0,121.563l340,0l0,-121.563c0,-42.403 -34.016,-77.437 -76.419,-77.437z"/>
  <ellipse id="svg_2" ry="108.767" rx="100.77" fill="#3c4257" cy="150.767" cx="258.409"/>
  <path id="svg_3" fill="#3c4257" d="m379.921,58.721c-12.71,0 -24.671,3.449 -35.134,9.516c18.354,21.929 29.533,50.858 29.533,82.53c0,23.679 -6.25,45.825 -17.072,64.66c7.15,2.469 14.765,3.813 22.673,3.813c41.067,0 74.358,-35.933 74.358,-80.26s-33.291,-80.259 -74.358,-80.259z"/>
  <path id="svg_4" fill="#3c4257" d="m142.497,150.767c0,-31.035 10.73,-59.439 28.43,-81.202c-10.969,-6.883 -23.706,-10.844 -37.308,-10.844c-41.067,0 -74.358,35.933 -74.358,80.26s33.291,80.26 74.358,80.26c8.917,0 17.465,-1.698 25.387,-4.804c-10.475,-18.621 -16.509,-40.405 -16.509,-63.67z"/>
  <path id="svg_5" fill="#3c4257" d="m71,348.436c0,-24.549 9.862,-47.734 27.512,-65.285c17.608,-17.508 40.969,-27.151 65.525,-27.151l33.257,0c-10.007,-6.664 -19.004,-14.906 -26.672,-24.41c-11.369,5.86 -23.874,7.547 -37.003,7.547c-15.65,0 -30.419,-2.138 -43.425,-11.138l-26.212,0c-31.289,0.001 -57.982,25.553 -57.982,56.842l0,89.159l65,0l0,-25.564z"/>
  <path id="svg_6" fill="#3c4257" d="m447.198,228l-23.852,0c-13.006,9 -27.775,11.138 -43.425,11.138c-12.235,0 -23.927,-1.419 -34.663,-6.342c-7.459,9.021 -16.124,16.809 -25.726,23.205l30.048,0c50.264,-0.001 91.42,41.466 91.42,92.435l0,25.564l63,0l0,-89.159c0,-31.289 -25.513,-56.841 -56.802,-56.841z"/>
 </g>
</svg>