<svg width="16" height="16" xmlns="http://www.w3.org/2000/svg">

 <title/>
 <g>
  <title>background</title>
  <rect fill="none" id="canvas_background" height="402" width="582" y="-1" x="-1"/>
 </g>
 <g>
  <title>Layer 1</title>
  <path fill="#666666" id="svg_1" d="m12.5,2a1.5,1.5 0 0 0 -1.5,1.5l0,5.5l-5,0l0,-1.5a0.5,0.5 0 0 0 -0.31,-0.5a0.47,0.47 0 0 0 -0.54,0.11l-3,3a0.48,0.48 0 0 0 0,0.7l3,3a0.47,0.47 0 0 0 0.35,0.19a0.43,0.43 0 0 0 0.19,0a0.5,0.5 0 0 0 0.31,-0.5l0,-1.5l6.5,0a1.5,1.5 0 0 0 1.5,-1.5l0,-7a1.5,1.5 0 0 0 -1.5,-1.5z" class="cls-1"/>
 </g>
</svg>