<svg width="24" height="24" xmlns="http://www.w3.org/2000/svg">

 <g>
  <title>background</title>
  <rect fill="none" id="canvas_background" height="402" width="582" y="-1" x="-1"/>
 </g>
 <g>
  <title>Layer 1</title>
  <path fill="#595959" id="svg_1" d="m14,8l-4,0l0,-5c0,-1.10457 0.89543,-2 2,-2l0,0c1.10457,0 2,0.89543 2,2l0,5z"/>
  <path fill="#595959" id="svg_2" d="m12,23l0,0c-1.10457,0 -2,-0.89543 -2,-2l0,-1l4,0l0,1c0,1.10457 -0.89543,2 -2,2z"/>
  <path fill="#595959" id="svg_3" d="m18.043415,12.95416l0,-2.95417c0,-3.3137 -2.68629,-5.99999 -5.99999,-5.99999l-0.00002,0c-3.3137,0 -5.99999,2.68629 -5.99999,5.99999l0,2.95417c0,0.65338 -0.32654,1.26354 -0.87019,1.62596l-1.25962,0.83976c-0.54365,0.36242 -0.87019,0.97258 -0.87019,1.62596l0,0c0,1.07925 0.87491,1.95416 1.95416,1.95416l14.09168,0c1.07925,0 1.95416,-0.87491 1.95416,-1.95416l0,0c0,-0.65338 -0.32654,-1.26354 -0.87019,-1.62596l-1.25962,-0.83976c-0.54365,-0.36242 -0.87019,-0.97258 -0.87019,-1.62596z"/>
 </g>
</svg>