<svg width="99.99999999999999" height="99.99999999999999" xmlns="http://www.w3.org/2000/svg">

 <g>
  <title>background</title>
  <rect fill="none" id="canvas_background" height="402" width="582" y="-1" x="-1"/>
 </g>
 <g>
  <title>Layer 1</title>
  <path fill="#3c4257" id="svg_1" d="m88.89,47.5l-3.29,-5.699c-0.439,-0.76 -0.67,-1.622 -0.67,-2.5l0,-6.581c0,-1.786 -0.953,-3.437 -2.5,-4.33l-5.699,-3.29c-0.76,-0.439 -1.391,-1.07 -1.83,-1.83l-3.29,-5.699c-0.893,-1.547 -2.544,-2.5 -4.33,-2.5l-6.581,0c-0.878,0 -1.74,-0.231 -2.5,-0.67l-5.7,-3.291c-1.547,-0.893 -3.453,-0.893 -5,0l-5.699,3.29c-0.76,0.439 -1.622,0.67 -2.5,0.67l-6.581,0c-1.786,0 -3.437,0.953 -4.33,2.5l-3.29,5.699c-0.439,0.76 -1.07,1.391 -1.83,1.83l-5.699,3.29c-1.547,0.893 -2.5,2.544 -2.5,4.33l0,6.581c0,0.878 -0.231,1.74 -0.67,2.5l-3.291,5.7c-0.893,1.547 -0.893,3.453 0,5l3.29,5.699c0.439,0.76 0.67,1.622 0.67,2.5l0,6.581c0,1.786 0.953,3.437 2.5,4.33l5.699,3.29c0.76,0.439 1.391,1.07 1.83,1.83l3.29,5.699c0.893,1.547 2.544,2.5 4.33,2.5l6.581,0c0.878,0 1.74,0.231 2.5,0.67l5.699,3.29c1.547,0.893 3.453,0.893 5,0l5.699,-3.29c0.76,-0.439 1.622,-0.67 2.5,-0.67l6.581,0c1.786,0 3.437,-0.953 4.33,-2.5l3.29,-5.699c0.439,-0.76 1.07,-1.391 1.83,-1.83l5.699,-3.29c1.547,-0.893 2.5,-2.544 2.5,-4.33l0,-6.581c0,-0.878 0.231,-1.74 0.67,-2.5l3.29,-5.699c0.895,-1.547 0.895,-3.453 0.002,-5zm-38.89,32.5c-16.569,0 -30,-13.431 -30,-30s13.431,-30 30,-30s30,13.431 30,30s-13.431,30 -30,30z"/>
  <path fill="#3c4257" id="svg_2" d="m50,24c-14.336,0 -26,11.664 -26,26s11.664,26 26,26s26,-11.664 26,-26s-11.664,-26 -26,-26zm14.54,17.044l-14.347,20.869c-0.454,0.66 -1.187,1.076 -1.987,1.125c-0.055,0.003 -0.109,0.005 -0.162,0.005c-0.743,0 -1.453,-0.317 -1.95,-0.876l-10.435,-11.738c-0.957,-1.077 -0.86,-2.725 0.217,-3.682c1.076,-0.958 2.725,-0.861 3.682,0.217l8.222,9.249l12.461,-18.125c0.816,-1.186 2.441,-1.488 3.628,-0.671c1.187,0.815 1.488,2.439 0.671,3.627z"/>
 </g>
</svg>