<svg xmlns="http://www.w3.org/2000/svg" xmlns:xlink="http://www.w3.org/1999/xlink" viewBox="0 0 135 135" xmlns:v="https://vecta.io/nano"><style><![CDATA[.d{fill:#72d561}.e{fill:#78e75a}.f{enable-background:new}.g{fill:#5ec363}.h{fill:#ffd06c}.i{fill:#1d2943}.j{fill:#4c5c75}.k{fill:#f3f1fc}.l{fill:#dedffb}.m{fill:#e93565}.n{fill:#febc1f}.o{fill:#f45170}.p{fill:#f9a83d}.q{fill:#ffd475}.r{fill:#f3a250}.s{fill:#50b069}.t{fill:#111d33}.u{fill:#986ff9}]]></style><g class="j"><path d="M46.809 71.347L44.91 91.939c0 .297-.198.603-.585.828-.792.459-2.07.459-2.862 0-.324-.198-.522-.432-.585-.684h-.018l-1.89-20.736h7.838z"/><use xlink:href="#B"/><use xlink:href="#C"/><use xlink:href="#B" x="-25.847" y="-15.033"/><use xlink:href="#C" x="64.067" y="-7.168"/><use xlink:href="#B" x="38.219" y="-22.201"/></g><path d="M46.116 47.551l.101 35.835 36.15-20.871v-.002L51.386 44.509z" class="k"/><path d="M51.386 44.509l30.982 18.005-.101-35.834z" class="l"/><path d="M75.064 56.114v2.34l-9.37 5.45-18.85-10.88v-2.34l9.37-5.45z" class="g"/><use xlink:href="#D" class="d"/><use xlink:href="#E" class="g"/><use xlink:href="#F" class="e"/><use xlink:href="#G" class="d"/><use xlink:href="#H" class="g"/><g class="f"><g class="e"><use xlink:href="#I"/><use xlink:href="#J"/><use xlink:href="#J" x="-4.52" y="2.627"/><use xlink:href="#J" x="-9.984" y="-5.764"/><use xlink:href="#I" x="4.521" y="-2.627"/><use xlink:href="#J" x="-14.504" y="-3.137"/><use xlink:href="#I" x="14.505" y="3.137"/><use xlink:href="#K"/></g><use xlink:href="#L" class="d"/><use xlink:href="#I" x="9.984" y="5.764" class="e"/></g><use xlink:href="#M" class="m"/><use xlink:href="#N" class="n"/><use xlink:href="#O" class="o"/><use xlink:href="#P" class="h"/><g class="i"><use xlink:href="#Q"/><use xlink:href="#R"/><use xlink:href="#Q" x="0.521" y="0.3"/><use xlink:href="#Q" x="-15.726" y="-9.081"/><use xlink:href="#R" x="-15.726" y="-9.081"/><use xlink:href="#Q" x="-15.205" y="-8.781"/><use xlink:href="#Q" x="-6.655" y="3.867"/><use xlink:href="#R" x="-6.656" y="3.867"/><use xlink:href="#Q" x="-6.135" y="4.168"/><use xlink:href="#Q" x="-22.382" y="-5.214"/><use xlink:href="#R" x="-22.382" y="-5.214"/><use xlink:href="#Q" x="-21.861" y="-4.913"/></g><use xlink:href="#D" y="-2.815" class="d"/><use xlink:href="#E" y="-2.816" class="g"/><use xlink:href="#F" y="-2.815" class="e"/><use xlink:href="#G" y="-2.815" class="d"/><use xlink:href="#H" y="-2.815" class="g"/><g class="f"><g class="e"><use xlink:href="#I" y="-2.815"/><use xlink:href="#J" y="-2.815"/><use xlink:href="#J" x="-4.52" y="-0.188"/><use xlink:href="#J" x="-9.984" y="-8.579"/><use xlink:href="#I" x="4.521" y="-5.442"/><use xlink:href="#J" x="-14.504" y="-5.952"/><use xlink:href="#I" x="14.505" y="0.322"/><use xlink:href="#K" y="-2.815"/></g><use xlink:href="#L" y="-2.815" class="d"/><use xlink:href="#I" x="9.984" y="2.949" class="e"/></g><use xlink:href="#M" y="-2.815" class="m"/><use xlink:href="#N" y="-2.815" class="n"/><use xlink:href="#O" y="-2.815" class="o"/><use xlink:href="#P" y="-2.815" class="h"/><g class="i"><use xlink:href="#Q" y="-2.816"/><use xlink:href="#R" y="-2.815"/><use xlink:href="#Q" x="0.521" y="-2.515"/><use xlink:href="#Q" x="-15.726" y="-11.897"/><use xlink:href="#R" x="-15.726" y="-11.896"/><use xlink:href="#Q" x="-15.205" y="-11.596"/><use xlink:href="#Q" x="-6.655" y="1.052"/><use xlink:href="#R" x="-6.656" y="1.052"/><use xlink:href="#Q" x="-6.135" y="1.353"/><use xlink:href="#Q" x="-22.382" y="-8.029"/><use xlink:href="#R" x="-22.382" y="-8.029"/><use xlink:href="#Q" x="-21.861" y="-7.728"/></g><use xlink:href="#D" x="1.894" y="-4.738" class="d"/><use xlink:href="#E" x="1.894" y="-4.739" class="g"/><use xlink:href="#F" x="1.894" y="-4.738" class="e"/><use xlink:href="#G" x="1.893" y="-4.739" class="d"/><use xlink:href="#H" x="1.893" y="-4.739" class="g"/><g class="f"><g class="e"><use xlink:href="#I" x="1.894" y="-4.739"/><use xlink:href="#J" x="1.894" y="-4.738"/><use xlink:href="#J" x="-2.626" y="-2.112"/><use xlink:href="#J" x="-8.09" y="-10.503"/><use xlink:href="#I" x="6.414" y="-7.366"/><use xlink:href="#J" x="-12.61" y="-7.876"/><use xlink:href="#I" x="16.398" y="-1.601"/><use xlink:href="#K" x="1.893" y="-4.739"/></g><use xlink:href="#L" x="1.894" y="-4.738" class="d"/><use xlink:href="#I" x="11.878" y="1.026" class="e"/></g><use xlink:href="#M" x="1.894" y="-4.739" class="m"/><use xlink:href="#N" x="1.894" y="-4.738" class="n"/><use xlink:href="#O" x="1.894" y="-4.738" class="o"/><use xlink:href="#P" x="1.893" y="-4.738" class="h"/><g class="i"><use xlink:href="#Q" x="1.894" y="-4.739"/><use xlink:href="#R" x="1.894" y="-4.739"/><use xlink:href="#Q" x="2.415" y="-4.438"/><use xlink:href="#Q" x="-13.832" y="-13.82"/><use xlink:href="#R" x="-13.832" y="-13.82"/><use xlink:href="#Q" x="-13.312" y="-13.519"/><use xlink:href="#Q" x="-4.762" y="-0.871"/><use xlink:href="#R" x="-4.762" y="-0.871"/><use xlink:href="#Q" x="-4.241" y="-0.57"/><use xlink:href="#Q" x="-20.488" y="-9.952"/><use xlink:href="#R" x="-20.488" y="-9.952"/><use xlink:href="#Q" x="-19.967" y="-9.652"/></g><use xlink:href="#D" x="0.237" y="-8.559" class="d"/><use xlink:href="#E" x="0.237" y="-8.56" class="g"/><use xlink:href="#F" x="0.237" y="-8.559" class="e"/><use xlink:href="#G" x="0.237" y="-8.56" class="d"/><use xlink:href="#H" x="0.237" y="-8.56" class="g"/><g class="f"><g class="e"><use xlink:href="#I" x="0.238" y="-8.56"/><use xlink:href="#J" x="0.238" y="-8.559"/><use xlink:href="#J" x="-4.283" y="-5.933"/><use xlink:href="#J" x="-9.746" y="-14.324"/><use xlink:href="#I" x="4.758" y="-11.187"/><use xlink:href="#J" x="-14.267" y="-11.697"/><use xlink:href="#I" x="14.742" y="-5.422"/><use xlink:href="#K" x="0.237" y="-8.56"/></g><use xlink:href="#L" x="0.237" y="-8.559" class="d"/><use xlink:href="#I" x="10.222" y="-2.795" class="e"/></g><use xlink:href="#M" x="0.237" y="-8.56" class="m"/><path d="M57.565 48.163L55.88 47.2v2.338l1.686.976z" class="n"/><use xlink:href="#O" x="0.238" y="-8.559" class="o"/><path d="M66.975 42.753l-1.677-.968L55.88 47.2l1.686.963z" class="h"/><g class="i"><use xlink:href="#Q" x="0.238" y="-8.56"/><use xlink:href="#R" x="0.237" y="-8.56"/><use xlink:href="#Q" x="0.758" y="-8.259"/><use xlink:href="#Q" x="-15.489" y="-17.641"/><use xlink:href="#R" x="-15.489" y="-17.641"/><use xlink:href="#Q" x="-14.968" y="-17.34"/><use xlink:href="#Q" x="-6.418" y="-4.692"/><use xlink:href="#R" x="-6.418" y="-4.692"/><use xlink:href="#Q" x="-5.897" y="-4.391"/><use xlink:href="#Q" x="-22.144" y="-13.773"/><use xlink:href="#R" x="-22.145" y="-13.773"/><use xlink:href="#Q" x="-21.624" y="-13.472"/></g><path d="M72.085 44.555v2.339l-9.37 5.445V50z" class="d"/><path d="M62.715 50v2.339l-18.844-10.88V39.12z" class="s"/><path d="M72.085 44.555L62.715 50 43.871 39.12l9.37-5.445z" class="e"/><use xlink:href="#G" x="-2.975" y="-11.563" class="d"/><use xlink:href="#H" x="-2.975" y="-11.563" class="g"/><g class="f"><g class="e"><use xlink:href="#I" x="-2.974" y="-11.563"/><use xlink:href="#J" x="-2.974" y="-11.563"/><use xlink:href="#J" x="-7.495" y="-8.936"/><use xlink:href="#J" x="-12.958" y="-17.327"/><use xlink:href="#I" x="1.546" y="-14.19"/><use xlink:href="#J" x="-17.479" y="-14.7"/><use xlink:href="#I" x="11.53" y="-8.426"/><use xlink:href="#K" x="-2.975" y="-11.563"/></g><use xlink:href="#L" x="-2.975" y="-11.563" class="d"/><use xlink:href="#I" x="7.01" y="-5.799" class="e"/></g><path d="M54.767 45.396v2.354l-2.514-1.451V43.96z" class="m"/><use xlink:href="#O" x="-2.974" y="-11.563" class="o"/><g class="n"><path d="M63.764 39.754l-9.41 5.41v2.35l-1.69-.98v-2.34l9.42-5.41z"/><use xlink:href="#N" x="-2.975" y="-11.562"/></g><use xlink:href="#P" x="-2.975" y="-11.562" class="h"/><g class="i"><use xlink:href="#Q" x="-2.974" y="-11.563"/><use xlink:href="#R" x="-2.974" y="-11.563"/><use xlink:href="#Q" x="-2.454" y="-11.262"/><use xlink:href="#Q" x="-18.701" y="-20.644"/><use xlink:href="#R" x="-18.701" y="-20.644"/><use xlink:href="#Q" x="-18.18" y="-20.343"/><use xlink:href="#Q" x="-9.63" y="-7.695"/><use xlink:href="#R" x="-9.63" y="-7.695"/><use xlink:href="#Q" x="-9.109" y="-7.395"/><use xlink:href="#Q" x="-25.356" y="-16.776"/><use xlink:href="#R" x="-25.356" y="-16.776"/><use xlink:href="#Q" x="-24.836" y="-16.476"/></g><use xlink:href="#D" x="1.06" y="-15.383" class="d"/><use xlink:href="#E" x="1.06" y="-15.384" class="s"/><use xlink:href="#F" x="1.06" y="-15.383" class="e"/><use xlink:href="#G" x="1.06" y="-15.383" class="d"/><use xlink:href="#H" x="1.06" y="-15.384" class="g"/><g class="f"><g class="e"><use xlink:href="#I" x="1.061" y="-15.384"/><use xlink:href="#J" x="1.061" y="-15.383"/><use xlink:href="#J" x="-3.46" y="-12.756"/><use xlink:href="#J" x="-8.923" y="-21.148"/><use xlink:href="#I" x="5.581" y="-18.01"/><use xlink:href="#J" x="-13.444" y="-18.521"/><use xlink:href="#I" x="15.565" y="-12.246"/><use xlink:href="#K" x="1.06" y="-15.383"/></g><use xlink:href="#L" x="1.061" y="-15.383" class="d"/><use xlink:href="#I" x="11.045" y="-9.619" class="e"/></g><path d="M58.803 41.575v2.354l-2.514-1.451V40.14z" class="m"/><use xlink:href="#N" x="1.06" y="-15.383" class="n"/><use xlink:href="#O" x="1.061" y="-15.383" class="o"/><use xlink:href="#P" x="1.06" y="-15.383" class="h"/><g class="i"><path d="M73.641 40.549c-.015.053-.067.106-.158.159a.67.67 0 0 1-.274.092c-.092.009-.174-.008-.247-.05s-.102-.09-.087-.143.068-.106.158-.159a.67.67 0 0 1 .274-.092c.092-.009.174.008.247.05s.101.089.087.143zm-.438.19c.066-.009.134-.033.205-.074s.112-.08.127-.119-.003-.071-.051-.099-.105-.037-.171-.029a.55.55 0 0 0-.204.074c-.071.041-.114.081-.128.119s.003.071.051.099.105.037.171.029"/><path d="M73.172 40.195c.01.006.015.013.015.021s-.005.015-.015.021-.021.009-.035.008a.07.07 0 0 1-.035-.009l-.241-.139-.201.086c.064.011.123.032.174.061.041.024.068.048.081.074s.013.051 0 .076-.038.048-.074.069c-.055.032-.119.047-.192.045a.47.47 0 0 1-.222-.068c-.067-.039-.11-.082-.129-.13.001-.018.005-.022.013-.027s.021-.009.034-.009.024.002.034.008a.32.32 0 0 0 .111.109c.053.03.101.048.147.054s.089-.004.131-.028c.034-.02.05-.042.046-.067s-.025-.049-.064-.072a.45.45 0 0 0-.163-.053c-.023-.004-.031-.007-.039-.011-.015-.009-.024-.019-.026-.03s.005-.021.019-.029c.007-.004.014-.007.021-.011l.257-.106c.014-.006.029-.009.044-.009s.029.004.041.011l.266.154z"/><use xlink:href="#Q" x="1.582" y="-15.083"/><use xlink:href="#Q" x="-14.666" y="-24.465"/><use xlink:href="#R" x="-14.666" y="-24.465"/><use xlink:href="#Q" x="-14.145" y="-24.164"/><use xlink:href="#Q" x="-5.595" y="-11.516"/><use xlink:href="#R" x="-5.595" y="-11.516"/><use xlink:href="#Q" x="-5.074" y="-11.215"/><use xlink:href="#Q" x="-21.321" y="-20.597"/><use xlink:href="#R" x="-21.321" y="-20.597"/><use xlink:href="#Q" x="-20.8" y="-20.296"/></g><path d="M56.375 66.905v2.339l-9.37 5.445V72.35z" class="d"/><use xlink:href="#E" x="-18.685" y="10.787" class="g"/><use xlink:href="#F" x="-18.685" y="10.788" class="e"/><use xlink:href="#G" x="-18.685" y="10.788" class="d"/><use xlink:href="#H" x="-18.685" y="10.788" class="g"/><g class="f"><g class="e"><use xlink:href="#I" x="-18.685" y="10.788"/><use xlink:href="#J" x="-18.685" y="10.788"/><use xlink:href="#J" x="-23.205" y="13.415"/><use xlink:href="#J" x="-28.669" y="5.024"/><use xlink:href="#I" x="-14.164" y="8.161"/><use xlink:href="#J" x="-33.189" y="7.651"/><use xlink:href="#I" x="-4.18" y="13.925"/><use xlink:href="#K" x="-18.685" y="10.788"/></g><use xlink:href="#L" x="-18.685" y="10.788" class="d"/><use xlink:href="#I" x="-8.701" y="16.552" class="e"/></g><path d="M39.057 67.747V70.1l-2.514-1.451v-2.338z" class="m"/><use xlink:href="#N" x="-18.685" y="10.788" class="n"/><use xlink:href="#O" x="-18.684" y="10.788" class="o"/><use xlink:href="#P" x="-18.685" y="10.788" class="h"/><g class="i"><use xlink:href="#Q" x="-18.685" y="10.787"/><use xlink:href="#R" x="-18.685" y="10.787"/><use xlink:href="#Q" x="-18.164" y="11.088"/><use xlink:href="#Q" x="-34.411" y="1.706"/><use xlink:href="#R" x="-34.411" y="1.706"/><use xlink:href="#Q" x="-33.89" y="2.007"/><use xlink:href="#Q" x="-25.34" y="14.655"/><use xlink:href="#R" x="-25.34" y="14.655"/><use xlink:href="#Q" x="-24.82" y="14.956"/><use xlink:href="#Q" x="-41.067" y="5.574"/><use xlink:href="#R" x="-41.067" y="5.574"/><use xlink:href="#Q" x="-40.546" y="5.875"/></g><use xlink:href="#D" x="-18.685" y="7.973" class="d"/><use xlink:href="#E" x="-18.685" y="7.972" class="g"/><use xlink:href="#F" x="-18.685" y="7.973" class="e"/><use xlink:href="#G" x="-18.685" y="7.973" class="d"/><path d="M52.365 64.99l-3.812 2.219c-.789-.456-2.065-.456-2.838 0L32.183 59.4c.781-.456.773-1.191-.015-1.647l3.82-2.219c.789.456 2.057.456 2.838 0l13.532 7.818c-.781.448-.781 1.183.008 1.639z" class="g"/><g class="f"><g class="e"><use xlink:href="#I" x="-18.685" y="7.972"/><use xlink:href="#J" x="-18.685" y="7.973"/><use xlink:href="#J" x="-23.205" y="10.6"/><use xlink:href="#J" x="-28.669" y="2.208"/><use xlink:href="#I" x="-14.164" y="5.346"/><use xlink:href="#J" x="-33.189" y="4.835"/><use xlink:href="#I" x="-4.18" y="11.11"/><use xlink:href="#K" x="-18.685" y="7.973"/></g><use xlink:href="#L" x="-18.685" y="7.973" class="d"/><use xlink:href="#I" x="-8.701" y="13.737" class="e"/></g><use xlink:href="#M" x="-18.685" y="7.972" class="m"/><use xlink:href="#N" x="-18.685" y="7.973" class="n"/><use xlink:href="#O" x="-18.684" y="7.973" class="o"/><use xlink:href="#P" x="-18.685" y="7.973" class="h"/><g class="i"><use xlink:href="#Q" x="-18.685" y="7.972"/><use xlink:href="#R" x="-18.685" y="7.972"/><use xlink:href="#Q" x="-18.164" y="8.273"/><use xlink:href="#Q" x="-34.411" y="-1.109"/><use xlink:href="#R" x="-34.411" y="-1.109"/><use xlink:href="#Q" x="-33.89" y="-0.808"/><use xlink:href="#Q" x="-25.34" y="11.84"/><use xlink:href="#R" x="-25.34" y="11.84"/><use xlink:href="#Q" x="-24.82" y="12.141"/><use xlink:href="#Q" x="-41.067" y="2.759"/><use xlink:href="#R" x="-41.067" y="2.759"/><use xlink:href="#Q" x="-40.546" y="3.06"/></g><use xlink:href="#E" x="-16.791" y="6.049" class="g"/><g class="d"><path d="M58.264 62.164v2.34l-9.37 5.45v-2.34l-18.84-10.88 9.37-5.45z"/><use xlink:href="#D" x="-16.791" y="6.05"/></g><use xlink:href="#F" x="-16.791" y="6.05" class="e"/><use xlink:href="#G" x="-16.792" y="6.049" class="d"/><use xlink:href="#H" x="-16.792" y="6.049" class="g"/><g class="f"><g class="e"><use xlink:href="#I" x="-16.791" y="6.049"/><use xlink:href="#J" x="-16.791" y="6.049"/><use xlink:href="#J" x="-21.311" y="8.676"/><use xlink:href="#J" x="-26.775" y="0.285"/><use xlink:href="#I" x="-12.271" y="3.422"/><use xlink:href="#J" x="-31.295" y="2.912"/><use xlink:href="#I" x="-2.287" y="9.186"/><use xlink:href="#K" x="-16.792" y="6.049"/></g><use xlink:href="#L" x="-16.791" y="6.049" class="d"/><use xlink:href="#I" x="-6.807" y="11.813" class="e"/></g><use xlink:href="#M" x="-16.791" y="6.049" class="m"/><use xlink:href="#N" x="-16.791" y="6.049" class="n"/><use xlink:href="#O" x="-16.791" y="6.049" class="o"/><use xlink:href="#P" x="-16.792" y="6.05" class="h"/><g class="i"><use xlink:href="#Q" x="-16.791" y="6.049"/><use xlink:href="#R" x="-16.791" y="6.049"/><use xlink:href="#Q" x="-16.27" y="6.35"/><use xlink:href="#Q" x="-32.517" y="-3.032"/><use xlink:href="#R" x="-32.517" y="-3.032"/><use xlink:href="#Q" x="-31.997" y="-2.732"/><use xlink:href="#Q" x="-23.447" y="9.917"/><use xlink:href="#R" x="-23.447" y="9.917"/><use xlink:href="#Q" x="-22.926" y="10.217"/><use xlink:href="#Q" x="-39.173" y="0.836"/><use xlink:href="#R" x="-39.173" y="0.836"/><use xlink:href="#Q" x="-38.652" y="1.136"/></g><use xlink:href="#D" x="-18.447" y="2.229" class="d"/><path d="M47.243 63.791v2.339L28.398 55.25v-2.339z" class="g"/><use xlink:href="#F" x="-18.448" y="2.229" class="e"/><use xlink:href="#G" x="-18.448" y="2.228" class="d"/><use xlink:href="#H" x="-18.448" y="2.228" class="g"/><g class="f"><g class="e"><use xlink:href="#I" x="-18.447" y="2.228"/><use xlink:href="#J" x="-18.447" y="2.228"/><use xlink:href="#J" x="-22.968" y="4.855"/><use xlink:href="#J" x="-28.431" y="-3.536"/><use xlink:href="#I" x="-13.927" y="-0.399"/><use xlink:href="#J" x="-32.952" y="-0.909"/><use xlink:href="#I" x="-3.943" y="5.365"/><use xlink:href="#K" x="-18.448" y="2.228"/></g><use xlink:href="#L" x="-18.448" y="2.228" class="d"/><use xlink:href="#I" x="-8.463" y="7.992" class="e"/></g><use xlink:href="#M" x="-18.448" y="2.228" class="m"/><use xlink:href="#N" x="-18.448" y="2.228" class="n"/><use xlink:href="#O" x="-18.447" y="2.228" class="o"/><use xlink:href="#P" x="-18.448" y="2.229" class="h"/><g class="i"><use xlink:href="#Q" x="-18.447" y="2.228"/><use xlink:href="#R" x="-18.447" y="2.228"/><use xlink:href="#Q" x="-17.927" y="2.529"/><use xlink:href="#Q" x="-34.174" y="-6.853"/><use xlink:href="#R" x="-34.174" y="-6.853"/><use xlink:href="#Q" x="-33.653" y="-6.552"/><use xlink:href="#Q" x="-25.103" y="6.096"/><use xlink:href="#R" x="-25.103" y="6.096"/><use xlink:href="#Q" x="-24.582" y="6.396"/><use xlink:href="#Q" x="-40.829" y="-2.985"/><use xlink:href="#R" x="-40.829" y="-2.985"/><use xlink:href="#Q" x="-40.309" y="-2.685"/></g><use xlink:href="#D" x="-21.66" y="-0.775" class="d"/><use xlink:href="#E" x="-21.66" y="-0.775" class="s"/><use xlink:href="#F" x="-21.66" y="-0.775" class="e"/><use xlink:href="#G" x="-21.66" y="-0.775" class="d"/><use xlink:href="#H" x="-21.66" y="-0.775" class="g"/><g class="f"><g class="e"><use xlink:href="#I" x="-21.659" y="-0.775"/><use xlink:href="#J" x="-21.659" y="-0.775"/><use xlink:href="#J" x="-26.18" y="1.852"/><use xlink:href="#J" x="-31.643" y="-6.539"/><use xlink:href="#I" x="-17.139" y="-3.402"/><use xlink:href="#J" x="-36.164" y="-3.912"/><use xlink:href="#I" x="-7.155" y="2.362"/><use xlink:href="#K" x="-21.66" y="-0.775"/></g><use xlink:href="#L" x="-21.659" y="-0.775" class="d"/><use xlink:href="#I" x="-11.675" y="4.989" class="e"/></g><use xlink:href="#M" x="-21.66" y="-0.775" class="m"/><use xlink:href="#N" x="-21.66" y="-0.775" class="n"/><use xlink:href="#O" x="-21.659" y="-0.775" class="o"/><use xlink:href="#P" x="-21.66" y="-0.775" class="h"/><g class="i"><use xlink:href="#Q" x="-21.659" y="-0.775"/><use xlink:href="#R" x="-21.659" y="-0.775"/><use xlink:href="#Q" x="-21.139" y="-0.475"/><use xlink:href="#Q" x="-37.386" y="-9.856"/><use xlink:href="#R" x="-37.386" y="-9.856"/><use xlink:href="#Q" x="-36.865" y="-9.556"/><use xlink:href="#Q" x="-28.315" y="3.092"/><use xlink:href="#R" x="-28.315" y="3.092"/><use xlink:href="#Q" x="-27.794" y="3.393"/><use xlink:href="#Q" x="-44.041" y="-5.989"/><use xlink:href="#R" x="-44.041" y="-5.989"/><use xlink:href="#Q" x="-43.521" y="-5.688"/></g><g class="d"><path d="M38.591 40.642l-9.37 5.445v2.339l18.844 10.88 9.37-5.445v-2.339z"/><use xlink:href="#D" x="-17.625" y="-4.595"/></g><use xlink:href="#E" x="-17.625" y="-4.596" class="s"/><use xlink:href="#F" x="-17.625" y="-4.595" class="e"/><path d="M30.23 46.044L48.136 56.38l8.291-4.815-17.906-10.34z" class="d"/><use xlink:href="#H" x="-17.625" y="-4.596" class="g"/><g class="f"><g class="e"><use xlink:href="#I" x="-17.624" y="-4.596"/><use xlink:href="#J" x="-17.624" y="-4.596"/><use xlink:href="#J" x="-22.145" y="-1.969"/><use xlink:href="#J" x="-27.608" y="-10.36"/><use xlink:href="#I" x="-13.104" y="-7.223"/><use xlink:href="#J" x="-32.129" y="-7.733"/><use xlink:href="#I" x="-3.12" y="-1.458"/><use xlink:href="#K" x="-17.625" y="-4.596"/></g><use xlink:href="#L" x="-17.624" y="-4.595" class="d"/><use xlink:href="#I" x="-7.64" y="1.169" class="e"/></g><use xlink:href="#M" x="-17.624" y="-4.596" class="m"/><use xlink:href="#N" x="-17.624" y="-4.595" class="n"/><use xlink:href="#O" x="-17.624" y="-4.595" class="o"/><use xlink:href="#P" x="-17.625" y="-4.595" class="h"/><g class="i"><use xlink:href="#Q" x="-17.624" y="-4.596"/><use xlink:href="#R" x="-17.624" y="-4.596"/><use xlink:href="#Q" x="-17.103" y="-4.295"/><use xlink:href="#Q" x="-33.351" y="-13.677"/><use xlink:href="#R" x="-33.351" y="-13.677"/><use xlink:href="#Q" x="-32.83" y="-13.376"/><use xlink:href="#Q" x="-24.28" y="-0.728"/><use xlink:href="#R" x="-24.28" y="-0.728"/><use xlink:href="#Q" x="-23.759" y="-0.428"/><use xlink:href="#Q" x="-40.006" y="-9.809"/><use xlink:href="#R" x="-40.006" y="-9.809"/><use xlink:href="#Q" x="-39.485" y="-9.509"/></g><path d="M84.575 22.669L43.793 46.215l.116 41.184 40.782-23.546-.116-41.184zm-2.207 39.847l-36.15 20.871-.101-35.835 5.269-3.042L82.266 26.68l.101 35.834v.002z" fill="#e9e7fc"/><path d="M43.794 46.214l.11 41.19-30.91-17.96-.11-41.19 40.78-23.55 30.91 17.96z" class="l"/><g class="f"><path d="M43.908 87.402L12.999 69.439l-.117-41.187 30.909 17.962z" class="l"/><path d="M43.791 46.215L12.882 28.252 53.667 4.705l30.909 17.962z" class="k"/></g><path d="M119.864 43.004l-.11 41.34-1.68.96-35.3-20.35.11-41.32 1.68-.97z" class="i"/><path d="M118.183 43.972l1.681-.963-.112 41.333-1.681.963z" class="t"/><path d="M82.887 23.632l1.681-.963 35.296 20.339-1.681.963z" class="j"/><path d="M118.183 43.972l-.112 41.333-35.296-20.346.112-41.326z" class="i"/><path d="M110.724 47.784l-.08 27.01-1.58.86-22.5-12.88.07-27.08 1.59-.87z" class="t"/><path d="M109.136 48.642l1.586-.862-.073 27.012-1.586.862z" class="i"/><path d="M86.638 35.691l1.586-.862 22.499 12.951-1.586.862z" class="j"/><path d="M109.136 48.642l-.073 27.012-22.499-12.88.073-27.083z" class="t"/><g class="j"><path d="M91.327 60.02l.044-16.117 13.001 7.484-.044 16.075z"/><use xlink:href="#S"/><use xlink:href="#S" y="2.539"/><use xlink:href="#S" y="7.617"/></g><g class="f"><path d="M111.111 49.471c-.044-.009-.097-.009-.159.009-.026.018-.062.027-.097.044-.088.053-.177.133-.248.23s-.124.203-.159.309c-.026.08-.035.15-.035.221a.35.35 0 0 0 .044.177c.009.018.018.035.035.053.009.018.018.026.035.035l-.654-.38-.486-.283c-.009-.027-.009-.053-.009-.08 0-.354.256-.787.566-.972.018-.009.027-.018.044-.018l.513.292.61.362z" class="l"/><use xlink:href="#T" class="k"/><path d="M111.111 52.016c-.071-.018-.159 0-.256.053-.088.053-.177.133-.248.23a1.03 1.03 0 0 0-.159.309c-.026.071-.035.141-.035.212 0 .141.053.239.133.283l-.681-.398-.477-.274c-.009-.027-.009-.053-.009-.088 0-.354.256-.787.566-.963.018-.009.027-.018.044-.018l.513.301.61.354z" class="l"/><use xlink:href="#T" y="2.544" class="k"/><path d="M111.111 57.09c-.044-.009-.097-.009-.159.009-.026.018-.062.027-.097.044-.088.053-.177.133-.248.23s-.124.203-.159.309c-.026.08-.035.15-.035.221 0 .133.053.23.133.274l-.672-.389-.486-.283c-.009-.027-.009-.053-.009-.08 0-.362.256-.787.566-.972.018-.009.027-.018.044-.018l.513.292.61.362z" class="l"/><use xlink:href="#T" y="7.619" class="k"/></g><use xlink:href="#S" y="5.078" class="j"/><g class="f"><use xlink:href="#U" class="l"/><use xlink:href="#T" y="5.089" class="k"/></g><use xlink:href="#S" y="10.156" class="j"/><g class="f"><use xlink:href="#U" y="5.078" class="l"/><use xlink:href="#T" y="10.167" class="k"/></g><use xlink:href="#S" y="12.695" class="j"/><g class="f"><use xlink:href="#U" y="7.617" class="l"/><use xlink:href="#T" y="12.706" class="k"/></g><use xlink:href="#S" y="15.234" class="j"/><g class="f"><use xlink:href="#U" y="10.156" class="l"/><use xlink:href="#T" y="15.245" class="k"/></g><use xlink:href="#S" y="17.773" class="j"/><g class="f"><use xlink:href="#U" y="12.695" class="l"/><use xlink:href="#T" y="17.784" class="k"/></g><use xlink:href="#S" y="20.312" class="j"/><g class="f"><use xlink:href="#U" y="15.234" class="l"/><use xlink:href="#T" y="20.323" class="k"/></g><use xlink:href="#S" y="22.851" class="j"/><g class="f"><use xlink:href="#U" y="17.773" class="l"/><use xlink:href="#T" y="22.862" class="k"/></g><use xlink:href="#S" y="25.391" class="j"/><g class="f"><use xlink:href="#U" y="20.313" class="l"/><use xlink:href="#T" y="25.401" class="k"/></g><path d="M77.072 63.142c0 .109-.017.481-.043.59-.049.203-.147.401-.292.591-.053.069-.113.137-.179.204a2.68 2.68 0 0 1-.258.228c-.082.066-.172.129-.269.191l-.107.064-.071.041a3.46 3.46 0 0 1-.37.179l-.157.065-.178.065c-.17.059-.346.11-.527.153l-.178.039-.527.083-.178.018-.527.027h-.178l-.471-.025-.054-.005-.178-.02c-1.012-.118-2.225-.537-2.815-1.327-.138-.184-.232-.376-.284-.572-.03-.115-.046-.229-.046-.346l.002-1.002c0 .109.017.219.044.328.051.197.146.389.286.574a2.1 2.1 0 0 0 .177.206c.495.507 1.247.828 1.934.993l.177.04.527.086.178.019.053.005.473.025h.178l.508-.025.196-.02.527-.082.179-.04c.181-.042.356-.093.526-.153l.178-.065c.528-.205 1.064-.516 1.411-.972a1.61 1.61 0 0 0 .29-.59c.026-.107.04-.215.04-.324l.003.756z" class="h"/><path d="M77.026 62.04a1.35 1.35 0 0 1 .004.671c-.299 1.221-2.047 1.816-3.307 1.922a6.78 6.78 0 0 1-1.158 0c-1.267-.108-3.01-.699-3.331-1.923a1.35 1.35 0 0 1-.005-.67c.302-1.218 2.038-1.815 3.31-1.923a6.92 6.92 0 0 1 1.156.001c1.267.109 3.012.693 3.331 1.923z" class="p"/><path d="M73.153 64.334c-.185 0-.37-.006-.554-.024a5.5 5.5 0 0 1-1.024-.178c-.787-.192-1.815-.723-2.028-1.505-.044-.165-.044-.335.001-.502.18-.776 1.236-1.322 2.014-1.506a5.27 5.27 0 0 1 1.009-.182l.583-.018.505.024.101.014a4.66 4.66 0 0 1 .925.164c.253.062.483.151.656.222.564.235 1.214.691 1.372 1.281.044.166.044.336 0 .503-.187.795-1.216 1.297-2.021 1.507a5.83 5.83 0 0 1-.939.167l-.6.031z" class="q"/><path d="M74.806 62.729c.066-.108.078-.216.048-.318-.036-.102-.12-.192-.246-.264a1.13 1.13 0 0 0-.509-.162c-.174-.006-.341.006-.509.042-.144.036-.306.084-.491.15l-.707-.407c.162-.084.336-.15.515-.198l.084-.03c.06-.036.084-.078.078-.12s-.03-.078-.078-.108a.44.44 0 0 0-.318-.03 3.24 3.24 0 0 0-.665.258l-.186-.108a.34.34 0 0 0-.162-.036c-.06 0-.114.012-.156.036s-.066.06-.066.09c0 .036.024.066.072.096l.186.108c-.765.557.057 1.198.959.965.138-.024.306-.072.479-.132l.683.395a2.88 2.88 0 0 1-.629.216c-.076.022-.197.078-.186.156 0 .042.03.078.084.108a.37.37 0 0 0 .15.048l.162-.012c.288-.066.563-.162.815-.282l.186.108a.38.38 0 0 0 .162.042c.06-.006.114-.018.156-.042s.066-.06.066-.09c0-.036-.024-.066-.066-.09l-.192-.114c.132-.084.228-.18.282-.276zm-2.708-.767l.611.353c-.741.226-.9-.109-.611-.353zm2.025.815l-.593-.347a2.27 2.27 0 0 1 .389-.096c.108-.018.186-.006.252.036.126.072.252.192-.048.407z" class="p"/><g class="r"><use xlink:href="#V"/><path d="M76.033 63.924l-.001 1.021-.107.064-.071.041.001-1.021.178-.105z"/><use xlink:href="#W"/><use xlink:href="#X"/><use xlink:href="#Y"/><use xlink:href="#Z"/><use xlink:href="#a"/><use xlink:href="#b"/><use xlink:href="#c"/><use xlink:href="#d"/><use xlink:href="#e"/></g><path d="M77.072 61.797c0 .109-.017.481-.043.59-.049.203-.147.401-.292.591-.385.499-.995.832-1.588 1.036-.17.059-.346.11-.527.153l-.178.039-.527.083-.178.018-.527.027h-.178l-.471-.025-.054-.005-.178-.02-.527-.086-.178-.04c-.728-.175-1.28-.455-1.655-.749-.103-.079-.196-.161-.278-.246-.066-.067-.125-.136-.178-.207-.138-.184-.232-.376-.284-.572-.03-.115-.046-.229-.046-.346l.002-1.002c0 .109.017.219.044.328.051.197.146.389.286.574.728.975 2.284 1.349 3.518 1.372h.178l.508-.025.196-.02.527-.082.179-.04c.764-.179 1.635-.56 2.114-1.191a1.61 1.61 0 0 0 .29-.59c.026-.107.04-.215.04-.324l.003.756z" class="h"/><path d="M77.03 61.366c-.297 1.213-2.032 1.815-3.307 1.922-1.632.139-4.092-.41-4.489-1.923a1.35 1.35 0 0 1-.005-.67c.09-.363.333-.716.728-1.023 1.178-.95 3.671-1.268 5.507-.474.939.391 1.808 1.187 1.565 2.168z" class="p"/><path d="M73.153 62.989c-1.322 0-3.277-.495-3.607-1.708-.395-1.486 2.889-2.977 5.795-1.782 2.2.916 1.666 2.687-.649 3.292a5.83 5.83 0 0 1-.939.167l-.6.031z" class="q"/><path d="M74.806 61.384c.066-.108.078-.216.048-.318-.036-.102-.12-.192-.246-.264a1.13 1.13 0 0 0-.509-.162c-.174-.006-.341.006-.509.042a5.33 5.33 0 0 0-.491.15l-.707-.407c.162-.084.336-.15.515-.198l.084-.03c.06-.036.084-.078.078-.12s-.03-.078-.078-.108a.44.44 0 0 0-.318-.03 3.24 3.24 0 0 0-.665.258l-.186-.108c-.224-.112-.522.054-.312.186l.186.108c-.132.096-.222.192-.264.294a.38.38 0 0 0-.018.312c.048.102.138.186.258.258.15.084.306.132.485.144.162.012.336 0 .497-.042.138-.024.306-.072.479-.132l.683.395a2.88 2.88 0 0 1-.629.216.4.4 0 0 0-.102.042c-.18.1-.045.25.15.27l.162-.012c.288-.066.563-.162.815-.282l.186.108a.38.38 0 0 0 .162.042c.06-.006.114-.018.156-.042s.066-.06.066-.09c0-.036-.024-.066-.066-.09l-.192-.114c.132-.084.228-.18.282-.276zm-2.738-.389c-.084-.054-.126-.108-.108-.18.012-.066.06-.132.138-.198l.611.353a2.19 2.19 0 0 1-.359.078c-.114.012-.198-.012-.282-.054zm2.055.437l-.593-.347a2.27 2.27 0 0 1 .389-.096c.108-.018.186-.006.252.036.126.072.252.192-.048.407z" class="p"/><g opacity=".3" fill="#fff"><path d="M73.153 58.749v4.566c-.535 0-1.149-.068-1.667-.215v-4.143c.565-.163 1.096-.208 1.667-.208zm1.621.215v4.143a6.17 6.17 0 0 1-.99.176v-4.494c.339.026.671.085.99.176z"/></g><g class="r"><use xlink:href="#V" y="-1.345"/><path d="M76.033 62.579l-.001 1.021-.178.105.001-1.021.178-.105z"/><use xlink:href="#W" y="-1.345"/><use xlink:href="#X" y="-1.344"/><use xlink:href="#Y" y="-1.345"/><use xlink:href="#Z" y="-1.344"/><use xlink:href="#a" y="-1.345"/><use xlink:href="#b" y="-1.345"/><use xlink:href="#c" y="-1.344"/><path d="M70.4 62.669l-.001 1.021c-.025-.012-.104-.058-.178-.106l.002-1.021.177.106z"/><use xlink:href="#e" y="-1.345"/></g><path d="M56.845 74.815c0 .591-.065 1.06-.772 1.612a3.01 3.01 0 0 1-.375.255l-.071.041a3.46 3.46 0 0 1-.37.179c-2.356 1.042-6.297.123-6.297-1.845l.002-1.002c0 1.811 3.487 2.832 5.961 1.955a4.35 4.35 0 0 0 .882-.413c.255-.161.519-.379.706-.624a1.61 1.61 0 0 0 .29-.59c.026-.107.04-.215.04-.324l.003.756z" class="h"/><path d="M56.798 73.713a1.35 1.35 0 0 1 .004.671c-.299 1.221-2.047 1.816-3.307 1.922-4.103.349-6.188-2.738-2.949-4.091 2.195-.955 5.783-.31 6.252 1.498z" class="p"/><path d="M49.953 75.156c-1.703-1.312.051-2.838 2.388-3.046l.583-.018.505.024.101.014c1.386.106 3.276.964 2.954 2.171-.139.588-.799 1.05-1.354 1.281-1.736.765-4.161.408-5.178-.426z" class="q"/><path d="M53.362 73.701c-.144.036-.306.084-.491.15l-.707-.407c.162-.084.336-.15.515-.198l.084-.03c.06-.036.084-.078.078-.12s-.03-.078-.078-.108a.44.44 0 0 0-.318-.03 3.24 3.24 0 0 0-.665.258c-.159-.081-.195-.144-.347-.144-.181 0-.309.122-.15.222l.186.108c-.786.572.092 1.189.959.965.138-.024.306-.072.479-.132l.683.395a2.88 2.88 0 0 1-.629.216.4.4 0 0 0-.102.042c-.054.03-.09.072-.084.114 0 .042.03.078.084.108.042.024.09.042.15.048l.162-.012c.288-.066.563-.162.815-.282l.186.108a.38.38 0 0 0 .162.042c.06-.006.114-.018.156-.042s.066-.06.066-.09c0-.036-.024-.066-.066-.09l-.192-.114c.806-.513.079-1.194-.935-.977zm-1.492-.066l.611.353a2.19 2.19 0 0 1-.359.078c-.303.032-.557-.173-.252-.431zm2.025.815l-.593-.347c.173-.055.488-.157.641-.06.126.072.252.192-.048.407z" class="p"/><g class="r"><use xlink:href="#V" x="-20.227" y="11.673"/><path d="M55.805 75.597l-.001 1.021-.178.105.001-1.021.178-.105z"/><use xlink:href="#W" x="-20.227" y="11.673"/><use xlink:href="#X" x="-20.228" y="11.674"/><use xlink:href="#Y" x="-20.228" y="11.673"/><use xlink:href="#Z" x="-20.228" y="11.674"/><use xlink:href="#a" x="-20.228" y="11.673"/><use xlink:href="#b" x="-20.228" y="11.673"/><use xlink:href="#c" x="-20.228" y="11.674"/><use xlink:href="#d" x="-20.227" y="11.673"/><use xlink:href="#e" x="-20.228" y="11.673"/></g><path d="M56.802 74.06c-.049.203-.147.401-.292.591-1.074 1.392-3.872 1.646-5.635 1.028-2.487-.897-1.805-2.342-1.913-2.968 0 1.53 2.261 2.245 3.848 2.274h.178l.508-.025.196-.02c1.041-.116 1.877-.478 2.381-.877a2.49 2.49 0 0 0 .26-.23c.303-.303.509-.692.509-1.118 0 0 .022 1.084-.04 1.346z" class="h"/><path d="M56.057 71.345c1.038.8 1.05 1.915.017 2.717-.655.53-1.696.825-2.579.899-1.715.146-4.104-.456-4.489-1.923a1.35 1.35 0 0 1-.005-.67c.373-1.502 2.808-2.063 4.466-1.923.875.075 1.928.367 2.59.9z" class="p"/><path d="M52.925 74.662c-1.26 0-3.278-.499-3.607-1.708-.044-.165-.044-.335.001-.502.356-1.534 3.391-2.004 5.138-1.503 1.006.246 2.29 1.024 2.028 2.007-.244 1.033-1.819 1.565-2.96 1.674l-.6.031z" class="q"/><path d="M53.871 72.315c-.174-.006-.342.006-.509.042-.144.036-.306.084-.491.15l-.707-.407c.228-.118.378-.155.599-.228.201-.12-.012-.338-.318-.258a3.24 3.24 0 0 0-.665.258l-.186-.108c-.219-.109-.526.052-.312.186l.186.108c-.617.449-.212.962.461 1.007.162.012.336 0 .497-.042.138-.024.306-.072.479-.132l.683.395a2.88 2.88 0 0 1-.629.216.4.4 0 0 0-.102.042c-.054.03-.09.072-.084.114 0 .042.03.078.084.108.042.024.09.042.15.048l.162-.012c.288-.066.563-.162.815-.282.112.057.212.15.347.15.249-.025.269-.157.156-.222l-.192-.114c.663-.422.272-.972-.425-1.019zm-2.031.353c-.084-.054-.126-.108-.108-.18.012-.066.06-.132.138-.198l.611.353a2.19 2.19 0 0 1-.359.078c-.114.012-.198-.012-.282-.054zm2.055.437l-.593-.348a2.27 2.27 0 0 1 .389-.096c.108-.018.186-.006.252.036.126.072.252.192-.048.407z" class="p"/><g opacity=".3" fill="#fff"><path d="M52.925 70.422v4.566c-.535 0-1.149-.068-1.667-.215V70.63c.565-.163 1.096-.208 1.667-.208zm1.622.215v4.143a6.17 6.17 0 0 1-.99.176v-4.494c.339.026.671.085.99.176z"/></g><g class="r"><use xlink:href="#V" x="-20.227" y="10.328"/><path d="M55.805 74.253l-.001 1.021-.178.105.001-1.021.178-.105z"/><use xlink:href="#W" x="-20.227" y="10.328"/><use xlink:href="#X" x="-20.228" y="10.329"/><use xlink:href="#Y" x="-20.228" y="10.328"/><use xlink:href="#Z" x="-20.228" y="10.329"/><use xlink:href="#a" x="-20.228" y="10.328"/><use xlink:href="#b" x="-20.228" y="10.328"/><use xlink:href="#c" x="-20.228" y="10.329"/><use xlink:href="#d" x="-20.227" y="10.329"/><use xlink:href="#e" x="-20.228" y="10.328"/></g><path d="M66.909 67.307c0 .109-.017.481-.043.59-.049.203-.147.401-.292.591-.488.632-1.34 1.003-2.114 1.19l-.178.039-.527.083-.178.018c-1.441.127-3.401-.249-4.223-1.35-.138-.184-.232-.376-.284-.572-.03-.115-.046-.229-.046-.346l.002-1.002c0 .109.017.219.044.328.051.197.146.389.286.574a2.1 2.1 0 0 0 .177.206c.794.813 2.175 1.145 3.341 1.167h.178l.508-.025.196-.02.527-.082.179-.04c.181-.042.356-.093.526-.153.512-.176 1.03-.443 1.41-.833.066-.066.125-.134.179-.205a1.61 1.61 0 0 0 .29-.59c.026-.107.04-.215.04-.324l.003.756z" class="h"/><path d="M66.863 66.205a1.35 1.35 0 0 1 .004.671c-.292 1.193-1.986 1.811-3.307 1.922-1.628.138-4.091-.407-4.489-1.923a1.35 1.35 0 0 1-.005-.67c.371-1.496 2.778-2.066 4.466-1.923 1.314.113 3.019.721 3.331 1.923z" class="p"/><path d="M62.989 68.499c-1.274 0-3.276-.491-3.607-1.708-.263-.988 1.015-1.771 2.014-2.007 1.878-.541 4.765.055 5.153 1.506.044.166.044.336 0 .503-.185.782-1.222 1.299-2.021 1.507a5.83 5.83 0 0 1-.939.167l-.6.031z" class="q"/><path d="M64.445 66.313c-.48-.284-.987-.156-1.51.03l-.707-.407c.42-.218.7-.184.677-.348-.047-.332-.764-.037-1.06.12-.159-.081-.195-.144-.347-.144-.088 0-.222.039-.222.126 0 .036.024.066.072.096l.186.108c-.768.558.047 1.201.959.965.138-.024.306-.072.479-.132l.683.395c-.49.23-.838.209-.815.371 0 .042.03.078.084.108.141.081.211.031.312.036.288-.066.563-.162.815-.282l.186.108c.244.122.511-.069.318-.18l-.192-.114c.392-.25.492-.624.084-.857zm-2.51-.186l.611.353c-.741.226-.9-.109-.611-.353zm2.025.815l-.593-.347c.173-.055.488-.157.641-.06.126.072.252.192-.048.407z" class="p"/><g opacity=".3" fill="#fff"><path d="M62.989 64.259v4.566c-.535 0-1.149-.068-1.667-.215v-4.143c.565-.163 1.096-.208 1.667-.208zm1.622.215v4.143a6.17 6.17 0 0 1-.99.176v-4.494c.339.026.671.085.99.176z"/></g><g class="r"><use xlink:href="#V" x="-10.163" y="4.165"/><path d="M65.87 68.089l-.001 1.021-.178.105.001-1.021.178-.105z"/><use xlink:href="#W" x="-10.163" y="4.165"/><use xlink:href="#X" x="-10.163" y="4.165"/><use xlink:href="#Y" x="-10.164" y="4.165"/><use xlink:href="#Z" x="-10.163" y="4.165"/><use xlink:href="#a" x="-10.164" y="4.165"/><use xlink:href="#b" x="-10.163" y="4.165"/><use xlink:href="#c" x="-10.164" y="4.165"/><path d="M60.237 68.179l-.001 1.021c-.025-.012-.104-.058-.178-.106l.002-1.021.177.106z"/><use xlink:href="#e" x="-10.164" y="4.165"/></g><path d="M122.109 63.35c-.012 1.192-.215 2.371-.59 3.507-1.161 3.477-2.752 7.033-4.607 10.638l-2.125-1.695-2.432-1.941 3.796-7.899a3.36 3.36 0 0 0 .27-2.119l-3.71-18.949 2.819-.731 1.738-.448c3.384.338 4.988 6.928 4.84 19.637z" fill="#7e5af2"/><path d="M119.142 63.35c-.012 1.192-.215 2.371-.596 3.507-.977 2.93-2.26 5.921-3.759 8.943l-2.432-1.941 3.796-7.899a3.36 3.36 0 0 0 .27-2.119l-3.71-18.949 2.819-.731c2.543 1.701 3.741 8.126 3.612 19.188z" class="u"/><path d="M118.175 115.519l.39 3.138.037.565c.014.244.002.478-.076.707-.096.295-.289.537-.498.754-.651.655-1.569 1.004-2.49.977-.637-.032-1.256-.247-1.851-.478-2.819-1.728-5.406-3.922-7.803-6.499-.634-.692-.883-1.647-.675-2.563.034-.159.081-.319.154-.47.392-1.001 1.313-1.673 2.348-1.789a2.96 2.96 0 0 1 1.325.162l8.814 3.281c.334.558.254 1.575.326 2.214z" fill="#bf7d5a"/><path d="M118.175 115.519l.39 3.138.037.565c-.098.166-.223.322-.362.467-.651.655-1.569 1.004-2.49.977-.637-.032-1.256-.247-1.851-.478-2.819-1.728-5.406-3.922-7.803-6.499-.516-.563-.779-1.297-.733-2.039.392-1.001 1.313-1.673 2.348-1.789a2.96 2.96 0 0 1 1.325.162l8.814 3.281c.334.558.254 1.575.326 2.214z" fill="#dba660"/><path d="M108.029 128.306a3.68 3.68 0 0 1-.089.551c-.089.35-.253.677-.543.878a1.76 1.76 0 0 1-.543.231 8.88 8.88 0 0 1-2.619.327c-1.912-.06-3.75-.752-5.618-1.146l-2.478-.655c-.342-.112-.685-.238-1.005-.417-.982-.551-1.734-1.421-1.912-2.53-.037-.193-.015-.536.037-.722.045-.164.149-.313.26-.439a2.97 2.97 0 0 1 .216-.216c.238-.216.528-.372.833-.469 1.139-.379 2.27-.126 3.408-.052.692.037 1.377.015 2.069-.015.551-.015 1.101-.037 1.637-.156.982-.208 1.875-.722 2.79-1.138.513-.231 1.049-.432 1.6-.528.372-.067.99-.171 1.339.037.357.216.335.848.38 1.205l.074.61.179 2.991c.037.551.037 1.109-.015 1.652z" fill="#bf7d5a"/><path d="M108.029 128.306a3.68 3.68 0 0 1-.089.551c-.007.007-.022.015-.03.022-.164.112-.35.171-.543.223a8.41 8.41 0 0 1-2.619.327c-1.912-.06-3.75-.752-5.618-1.146l-2.478-.647c-.35-.119-.692-.246-1.004-.424-.982-.551-1.734-1.421-1.92-2.53-.022-.134-.015-.335.007-.513.238-.216.528-.372.833-.469 1.139-.379 2.27-.126 3.408-.052.692.037 1.377.015 2.069-.015.551-.015 1.101-.037 1.637-.156.982-.208 1.875-.722 2.79-1.138.513-.231 1.049-.432 1.6-.528.372-.067.99-.171 1.339.037.357.216.335.848.38 1.205l.074.61.179 2.991c.037.551.037 1.109-.015 1.652z" fill="#dba660"/><path d="M98.334 81.229c1.22 13.378 2.087 30.829 2.573 42.019 0 .952 1.999 1.148 3.838.849 1.566-.253 3.015-.866 3.015-1.678l.505-22.521v-18.67h-9.931z" fill="#455368"/><path d="M101.976 81.229c1.297 13.205 2.227 31.299 2.768 42.868 1.566-.253 3.015-.866 3.015-1.678l.505-22.521v-18.67h-6.289z" class="j"/><path d="M118.542 81.229h-9.031l.258 14.224.074 1.363 1.228 17.173c-.223.986 2.242 2.749 4.187 3.045 1.463.221 2.822.084 2.989-.657-.066-9.667.008-23.331.295-35.148z" fill="#455368"/><path d="M118.542 81.229h-5.16l.311 17.149.074 1.361 1.491 17.294c1.463.221 2.822.084 2.989-.657-.066-9.667.008-23.331.295-35.148z" class="j"/><path d="M97.366 76.87l-1.027 15.233c-.088 1.303.765 2.501 2.036 2.802 6.482 1.536 12.807 1.018 18.905-2.517.794-.461 1.304-1.295 1.349-2.212l.749-15.211-13.667-.205-8.345 2.11z" class="u"/><path d="M116.849 43.625c-4.266-.546-12.987-.788-17.92 7.155l1.1 15.688-2.713 10.595c7.999 2.239 15.481 2.128 22.061-2.099-.669-2.619-1.553-4.998-2.675-7.113a11.62 11.62 0 0 1-.257-10.341c1.836-3.945 2.935-7.574 3.062-10.786.062-1.561-1.11-2.903-2.659-3.101z" fill="#b28afd"/><path d="M82.767 67.251l-4.299-.114-.191-.026c-1.187-.209-2.005-1.314-1.964-2.518l.043-1.253a.51.51 0 0 0-.311-.487l-1.847-.781a.78.78 0 0 1-.407-1.027h0a.78.78 0 0 1 .978-.427l3.925 1.39-.01-.91c.107-.588.841-.8 1.245-.358 1.276.979 2.494 2.379 3.171 3.584l-.334 2.927z" fill="#f5c9c6"/><path d="M83.486 62.663l-1.399-.157c-1.399 0-1.399 4.886 0 4.886l1.399.507v-5.235z" class="k"/><path d="M103.915 54.53s-3.562 13.789-7.444 15.786c-3.04 1.566-13.464-2.463-13.464-2.463-.719 0-1.099-1.155-1.155-2.395-.074-1.468.313-3.059 1.155-3.059l9.674 1.087c.559.061 1.093-.264 1.296-.792l4.177-10.86c.528-1.222 1.708-1.916 2.924-1.916.565 0 1.136.154 1.658.467l.209.147a3.18 3.18 0 0 1 .97 3.999z" fill="#7e5af2"/><path d="M102.736 50.384c-.682 2.868-3.747 15.122-7.101 17.014-2.531 1.431-11.228-1.136-13.783-1.941-.074-1.468.313-3.059 1.155-3.059l9.674 1.087c.559.061 1.093-.264 1.296-.792l4.177-10.86c.528-1.222 1.708-1.916 2.924-1.916.565 0 1.136.154 1.658.467z" class="u"/><path d="M101.04 33.282s-.886 9.828 4.593 10.253c4.622.358.143 0 .143 0l3.674-1.476s-4.154-9.24-4.489-9.264-3.922.487-3.922.487z" fill="#f4d6d4"/><path d="M118.772 49.557c-.108.696-.225 1.413-.595 2.01-.467.757-1.275 1.226-2.061 1.641-1.962 1.036-4.077 1.949-6.295 1.919l-.435-.022c-2.081-.169-4.165-1.346-4.857-3.3-.573-1.606-.132-3.373.26-5.034.617-2.611 1.105-5.29.908-7.966-.03-.422-.102-.885-.424-1.157s-.962-.132-.977.29c-.004.13.051.264.014.39-.061.205-.349.266-.536.162s-.294-.309-.374-.508c-.581-1.423-.581-3.257-1.854-4.118-.154-.106-.329-.197-.426-.357-.071-.116-.089-.256-.104-.392-.148-1.515.256-3.736 1.608-4.628 4.2-2.767 8.46-2.107 10.65.335 1.738 1.939 1.99 4.756 2.049 7.359s.057 5.369 1.454 7.564c.699 1.094 1.732 2.024 2.049 3.283.207.822.077 1.689-.055 2.528z" fill="#aa6256"/><defs ><path id="B" d="M45.662 69.519c1.546.892 1.548 2.335.012 3.228-1.53.889-4.015.889-5.561-.003-1.54-.889-1.554-2.332-.024-3.221 1.535-.892 4.032-.892 5.572-.003z"/><path id="C" d="M20.961 56.314l-1.899 20.592c0 .297-.198.603-.585.828-.792.459-2.07.459-2.862 0-.324-.198-.522-.432-.585-.684h-.018l-1.89-20.736h7.838z"/><path id="D" d="M75.06 56.117v2.339l-9.37 5.445v-2.339z"/><path id="E" d="M65.69 61.563v2.339l-18.844-10.88v-2.339z"/><path id="F" d="M75.06 56.117l-9.37 5.445-18.844-10.88 9.37-5.445z"/><path id="G" d="M47.855 50.64l17.906 10.336 8.291-4.815-17.906-10.34z"/><path id="H" d="M71.05 57.018l-3.812 2.219c-.789-.456-2.065-.456-2.838 0l-13.532-7.81c.781-.456.773-1.191-.015-1.647l3.82-2.219c.789.456 2.057.456 2.838 0l13.532 7.818c-.781.448-.781 1.183.008 1.639z"/><path id="I" d="M55.599 52.342l-.293.17-2.786-1.609.293-.17z"/><path id="J" d="M68.137 55.176l-.293.17-1.538-.888.293-.17z"/><path id="K" d="M63.799 51.749c1.207.697.911 2.002-.658 2.914s-3.822 1.087-5.029.391-.916-2.005.654-2.917 3.822-1.087 5.033-.388z"/><path id="L" d="M63.052 52.182c.89.514.672 1.477-.486 2.15s-2.819.802-3.709.288-.675-1.479.482-2.152 2.819-.802 3.713-.286z"/><path id="M" d="M57.742 56.959v2.354l-2.514-1.451v-2.338z"/><path id="N" d="M57.328 56.722l-1.686-.963v2.338l1.686.976z"/><path id="O" d="M67.149 51.55l-9.407 5.409-2.514-1.436 9.421-5.416z"/><path id="P" d="M66.738 51.312l-1.677-.968-9.419 5.415 1.686.963z"/><path id="Q" d="M72.58 55.933c-.015.053-.067.106-.158.159a.67.67 0 0 1-.274.092c-.092.009-.174-.008-.247-.05s-.102-.09-.087-.143.068-.106.158-.159a.67.67 0 0 1 .274-.092c.092-.009.174.008.247.05s.101.089.087.143zm-.438.19c.066-.009.134-.033.205-.074s.112-.08.127-.119-.003-.071-.051-.099-.105-.037-.171-.029a.55.55 0 0 0-.204.074c-.071.041-.113.081-.128.119s.003.071.051.099.105.037.171.029"/><path id="R" d="M72.111 55.579c.01.006.015.013.015.021s-.005.015-.015.021-.021.009-.035.008a.07.07 0 0 1-.035-.009l-.241-.139-.201.086c.064.011.123.032.174.061.041.024.068.048.081.074s.013.051 0 .076-.038.048-.074.069c-.055.032-.119.047-.192.045a.47.47 0 0 1-.222-.068c-.067-.039-.11-.082-.129-.13.001-.018.005-.022.013-.027s.021-.009.034-.009.024.002.034.008a.32.32 0 0 0 .111.109.4.4 0 0 0 .147.054c.045.006.089-.004.131-.028.034-.02.05-.042.046-.067s-.025-.049-.064-.072a.45.45 0 0 0-.163-.053c-.023-.004-.031-.007-.039-.011-.015-.009-.024-.019-.026-.03s.005-.021.019-.029c.007-.004.014-.007.021-.011l.257-.106c.014-.006.029-.009.044-.009s.029.004.041.011l.266.154z"/><path id="S" d="M109.944 48.839c.314-.181.568-.042.569.314.001.366-.251.798-.565.979s-.564.039-.565-.327c-.001-.356.251-.788.561-.967z"/><path id="T" d="M110.851 49.527c.242-.14.437-.029.438.25a.96.96 0 0 1-.435.754c-.24.138-.437.026-.438-.25a.96.96 0 0 1 .435-.754z"/><path id="U" d="M111.111 54.562c-.071-.018-.159 0-.256.053-.088.053-.177.133-.248.23a1.03 1.03 0 0 0-.159.309c-.026.071-.035.141-.035.212 0 .133.053.23.133.283l-.689-.398-.46-.274c-.018-.027-.018-.062-.018-.097 0-.354.256-.787.566-.963.009-.009.027-.018.035-.018l.521.309.61.354z"/><path id="V" d="M76.739 63.3l-.002 1.023c-.053.069-.113.137-.179.204l.002-1.022c.066-.066.125-.134.179-.205z"/><path id="W" d="M75.328 64.272l-.001 1.022-.178.065.001-1.022.178-.065z"/><path id="X" d="M74.625 64.49l-.002 1.022-.178.039.001-1.021.179-.04z"/><path id="Y" d="M73.92 64.612l-.001 1.022-.178.018.001-1.022.178-.018z"/><path id="Z" d="M73.216 64.656l-.002 1.022h-.178l.002-1.022h.178z"/><path id="a" d="M72.512 64.627l-.001 1.022-.178-.02.001-1.021.178.019z"/><path id="b" d="M71.807 64.522l-.001 1.021-.178-.04.002-1.021.177.04z"/><path id="c" d="M71.105 64.327l-.002 1.023-.179-.067.002-1.022.179.066z"/><path id="d" d="M70.4 64.014l-.001 1.021a2.42 2.42 0 0 1-.178-.106l.002-1.021.177.106z"/><path id="e" d="M69.697 63.49l-.001 1.019c-.066-.067-.125-.136-.178-.207l.002-1.018a2.1 2.1 0 0 0 .177.206z"/></defs></svg>