<svg width="56.693" height="56.693" xmlns="http://www.w3.org/2000/svg">

 <g>
  <title>background</title>
  <rect fill="none" id="canvas_background" height="402" width="582" y="-1" x="-1"/>
 </g>
 <g>
  <title>Layer 1</title>
  <path stroke="#3ea50b" id="svg_2" fill="#3ea50b" d="m10.464632,22.756632c-0.381,0 -0.688,0.309 -0.688,0.689l0,22.501c0,0.379 0.308,0.688 0.688,0.688l4.254,0c0.381,0 0.689,-0.309 0.689,-0.688l0,-22.5c0,-0.381 -0.309,-0.689 -0.689,-0.689l-4.254,0l0,-0.001z"/>
  <path stroke="#3ea50b" id="svg_3" fill="#3ea50b" d="m21.401,22.756632c-0.38,0 -0.688,0.309 -0.688,0.689l0,22.501c0,0.379 0.309,0.688 0.688,0.688l4.253,0c0.381,0 0.688,-0.309 0.688,-0.688l0,-22.5c0,-0.381 -0.308,-0.689 -0.688,-0.689l-4.253,0l0,-0.001z"/>
  <path stroke="#3ea50b" id="svg_4" fill="#3ea50b" d="m32.062,22.852c-0.38,0 -0.688,0.309 -0.688,0.689l0,22.501c0,0.379 0.308,0.688 0.688,0.688l4.258,0c0.381,0 0.688,-0.309 0.688,-0.688l0,-22.5c0,-0.381 -0.307,-0.689 -0.688,-0.689l-4.258,0l0,-0.001z"/>
  <path stroke="#3ea50b" id="svg_5" fill="#3ea50b" d="m42.998,22.756632c-0.38,0 -0.688,0.309 -0.688,0.689l0,22.501c0,0.379 0.309,0.688 0.688,0.688l4.257,0c0.381,0 0.689,-0.309 0.689,-0.688l0,-22.5c0,-0.381 -0.309,-0.689 -0.689,-0.689l-4.257,0l0,-0.001z"/>
  <path stroke="#3ea50b" id="svg_6" fill="#3ea50b" d="m5.739,18.807632l45.647,0c0.006,0 0.01,0 0.015,0c0.95,0 1.721,-0.77 1.721,-1.721c0,-0.736 -0.463,-1.365 -1.111,-1.61l-22.68,-10.909c-0.472,-0.228 -1.02,-0.228 -1.49,-0.002l-22.847,10.968c-0.725,0.348 -1.112,1.151 -0.933,1.934c0.178,0.785 0.875,1.34 1.678,1.34zm22.824,-8.973c1.433,0 2.594,1.161 2.594,2.594s-1.161,2.594 -2.594,2.594s-2.594,-1.161 -2.594,-2.594s1.162,-2.594 2.594,-2.594z"/>
  <path stroke="#3ea50b" id="svg_7" fill="#3ea50b" d="m51.387,50.25l-45.648,0c-0.951,0 -1.721,0.77 -1.721,1.721s0.77,1.723 1.721,1.723l45.647,0c0.951,0 1.723,-0.771 1.723,-1.723s-0.771,-1.721 -1.722,-1.721z"/>
 </g>
</svg>