<svg width="32" height="32" xmlns="http://www.w3.org/2000/svg">

 <g>
  <title>background</title>
  <rect fill="none" id="canvas_background" height="402" width="582" y="-1" x="-1"/>
 </g>
 <g>
  <title>Layer 1</title>
  <path fill="#3c4257" id="svg_1" d="m16,1c-8.284,0 -15,6.716 -15,15c0,8.284 6.716,15 15,15s15,-6.716 15,-15c0,-8.284 -6.716,-15 -15,-15zm9.414,11.414l-10,10c-0.39,0.391 -0.902,0.586 -1.414,0.586s-1.024,-0.195 -1.414,-0.586l-5,-5c-0.344,-0.344 -0.586,-0.82 -0.586,-1.414c0,-1.094 0.902,-2 2,-2c0.512,0 1.024,0.195 1.414,0.586l3.586,3.586l8.586,-8.586c0.39,-0.391 0.902,-0.586 1.414,-0.586c1.098,0 2,0.906 2,2c0,0.594 -0.242,1.07 -0.586,1.414z"/>
 </g>
</svg>