<svg width="99.99999999999999" height="99.99999999999999" xmlns="http://www.w3.org/2000/svg">

 <g>
  <title>background</title>
  <rect fill="none" id="canvas_background" height="402" width="582" y="-1" x="-1"/>
 </g>
 <g>
  <title>Layer 1</title>
  <path id="svg_3" d="m5273.1,2400.1l0,-2c0,-2.8 -5,-4 -9.7,-4s-9.7,1.3 -9.7,4l0,2c0,1.8 0.7,3.6 2,4.9l5,4.9c0.3,0.3 0.4,0.6 0.4,1l0,6.4c0,0.4 0.2,0.7 0.6,0.8l2.9,0.9c0.5,0.1 1,-0.2 1,-0.8l0,-7.2c0,-0.4 0.2,-0.7 0.4,-1l5.1,-5c1.3,-1.3 2,-3.1 2,-4.9zm-9.7,-0.1c-4.8,0 -7.4,-1.3 -7.5,-1.8l0,0c0.1,-0.5 2.7,-1.8 7.5,-1.8c4.8,0 7.3,1.3 7.5,1.8c-0.2,0.5 -2.7,1.8 -7.5,1.8z"/>
  <path id="svg_4" d="m5268.4,2410.3c-0.6,0 -1,0.4 -1,1c0,0.6 0.4,1 1,1l4.3,0c0.6,0 1,-0.4 1,-1c0,-0.6 -0.4,-1 -1,-1l-4.3,0z"/>
  <path id="svg_5" d="m5272.7,2413.7l-4.3,0c-0.6,0 -1,0.4 -1,1c0,0.6 0.4,1 1,1l4.3,0c0.6,0 1,-0.4 1,-1c0,-0.6 -0.4,-1 -1,-1z"/>
  <path id="svg_6" d="m5272.7,2417l-4.3,0c-0.6,0 -1,0.4 -1,1c0,0.6 0.4,1 1,1l4.3,0c0.6,0 1,-0.4 1,-1c0,-0.5 -0.4,-1 -1,-1z"/>
  <path fill="#263b7e" id="svg_7" d="m39,84.5c-2.8,0 -5.5,-1.1 -7.4,-3.1l-26,-26c-4.1,-4.1 -4.1,-10.8 0,-14.9c4.1,-4.1 10.8,-4.1 14.9,0l18.5,18.6l40.6,-40.6c4.1,-4.1 10.8,-4.1 14.9,0s4.1,10.8 0,14.9l-48,48c-2,2 -4.7,3.1 -7.5,3.1z"/>
 </g>
</svg>