<svg width="24" height="24" xmlns="http://www.w3.org/2000/svg">

 <g>
  <title>background</title>
  <rect fill="none" id="canvas_background" height="402" width="582" y="-1" x="-1"/>
 </g>
 <g>
  <title>Layer 1</title>
  <path fill="#3c4257" id="svg_2" d="m15.8,3.1c-0.4,-0.7 -1,-1.1 -1.8,-1.1l-4,0c-0.8,0 -1.4,0.4 -1.8,1.1c-1.8,0.3 -3.2,2 -3.2,3.9l0,11c0,2.2 1.8,4 4,4l6,0c2.2,0 4,-1.8 4,-4l0,-11c0,-1.9 -1.4,-3.6 -3.2,-3.9zm-5.8,0.9l4,0l0,0l0,1l-4,0l0,-1zm7,14c0,1.1 -0.9,2 -2,2l-6,0c-1.1,0 -2,-0.9 -2,-2l0,-11c0,-0.7 0.4,-1.4 1,-1.7c0,0 0,0.1 0,0.1c0,0.1 0,0.1 0,0.2c0,0.1 0,0.1 0.1,0.2c0,0 0,0.1 0.1,0.1c0,0 0.1,0.1 0.1,0.1c0,0 0.1,0.1 0.1,0.1c0,0.1 0.1,0.1 0.1,0.2c0,0 0.1,0.1 0.1,0.1c0.1,0.1 0.1,0.1 0.2,0.1c0,0 0.1,0.1 0.1,0.1c0.1,0 0.1,0.1 0.2,0.1c0,0 0.1,0 0.1,0.1c0.1,0 0.2,0.1 0.2,0.1c0,0 0.1,0 0.1,0c0.2,0.1 0.4,0.1 0.5,0.1l4,0c0.1,0 0.3,0 0.4,0c0,0 0.1,0 0.1,0c0.1,0 0.2,0 0.2,-0.1c0,0 0.1,0 0.1,-0.1c0.1,0 0.1,-0.1 0.2,-0.1c0,0 0.1,-0.1 0.1,-0.1c0.1,0 0.1,-0.1 0.2,-0.1c0,0 0.1,-0.1 0.1,-0.1c0,-0.1 0.1,-0.1 0.1,-0.2c0,0 0.1,-0.1 0.1,-0.1c0,-0.1 0.1,-0.1 0.1,-0.2c0,0 0,-0.1 0.1,-0.1c0,-0.1 0,-0.1 0.1,-0.2c0,-0.1 0,-0.1 0,-0.2c0,0 0,-0.1 0,-0.1c0.6,0.3 1,1 1,1.7l0,11l0.1,0z"/>
  <path fill="#3c4257" id="svg_3" d="m12.9,11.4l-1.3,2l-0.3,-0.3c-0.4,-0.4 -1,-0.4 -1.4,0s-0.4,1 0,1.4l1.1,1.1c0.2,0.2 0.4,0.3 0.7,0.3c0,0 0.1,0 0.1,0c0.3,0 0.6,-0.2 0.7,-0.4l2,-3c0.3,-0.5 0.2,-1.1 -0.3,-1.4c-0.4,-0.2 -1,-0.1 -1.3,0.3z"/>
 </g>
</svg>