<svg width="100" height="100" xmlns="http://www.w3.org/2000/svg">

 <g>
  <title>background</title>
  <rect fill="none" id="canvas_background" height="402" width="582" y="-1" x="-1"/>
 </g>
 <g>
  <title>Layer 1</title>
  <circle id="svg_2" r="10" fill="#3c4257" cy="51" cx="18.5"/>
  <circle id="svg_3" r="10" fill="#3c4257" cy="25" cx="64.5"/>
  <circle id="svg_4" r="10" fill="#3c4257" cy="75" cx="64.5"/>
  <path id="svg_5" fill="#3c4257" d="m81.5,41c-4.289,0 -7.938,2.706 -9.357,6.5l-9.889,0c-1.166,-5.982 -6.43,-10.5 -12.754,-10.5c-1.44,0 -2.822,0.244 -4.117,0.676l-3.632,-5.803c1.7,-1.793 2.749,-4.209 2.749,-6.873c0,-5.522 -4.477,-10 -10,-10c-5.522,0 -10,4.478 -10,10c0,5.521 4.478,10 10,10c1.053,0 2.065,-0.164 3.019,-0.466l3.514,5.614c-2.771,2.385 -4.533,5.91 -4.533,9.852c0,4.049 1.853,7.665 4.755,10.049l-3.568,5.479c-1.002,-0.338 -2.072,-0.528 -3.187,-0.528c-5.522,0 -10,4.478 -10,10c0,5.521 4.478,10 10,10c5.523,0 10,-4.479 10,-10c0,-2.6 -1.001,-4.961 -2.627,-6.739l3.801,-5.835c1.21,0.372 2.494,0.574 3.826,0.574c6.324,0 11.588,-4.518 12.754,-10.5l9.371,0c0.725,4.809 4.863,8.5 9.875,8.5c5.523,0 10,-4.479 10,-10c0,-5.522 -4.477,-10 -10,-10zm-32,17c-4.411,0 -8,-3.589 -8,-8s3.589,-8 8,-8s8,3.589 8,8s-3.589,8 -8,8z"/>
 </g>
</svg>