<svg width="512" height="512" xmlns="http://www.w3.org/2000/svg">

 <g>
  <title>background</title>
  <rect fill="none" id="canvas_background" height="402" width="582" y="-1" x="-1"/>
 </g>
 <g>
  <title>Layer 1</title>
  <path fill="#3c4257" id="svg_2" d="m356.2,166.5c9.5,0 17.2,-7.7 17.2,-17.2s-7.7,-17.2 -17.2,-17.2c-9.5,0 -17.2,7.7 -17.2,17.2s7.7,17.2 17.2,17.2z"/>
  <path fill="#3c4257" id="svg_3" d="m347.2,100.8c2.9,-0.5 5.9,-0.8 9,-0.8c27.2,0 49.3,22.1 49.3,49.3c0,15.1 -6.8,28.6 -17.5,37.6c3.8,14 6.4,28.4 7.8,42.9c24.6,-27.4 44.1,-60.1 58.5,-98c-41.1,-65.4 -113.7,-109.1 -196.4,-109.8c35.1,19 65.6,45.8 89.3,78.8z"/>
  <path fill="#3c4257" id="svg_4" d="m78.4,197.5c1.7,1.8 3.4,3.7 5.2,5.7c12.3,-6.2 27.2,-7.2 40.9,-1.6c25.1,10.3 37.2,39.2 26.8,64.4c0,0.1 -0.1,0.2 -0.1,0.3c15.6,11.8 31.6,21.9 48.7,30.8c0.3,0.2 0.7,0.4 1,0.6c0.1,0 6.1,3.7 17.2,8.7c5.3,-7.4 12.5,-13.2 21.1,-16.7c12.2,-5.1 25.6,-5.1 37.7,-0.1c6.8,2.8 12.7,6.9 17.5,12.1c26.2,-11.2 49.8,-25.4 70.7,-42.5c-0.1,-1.2 -0.1,-2.3 -0.1,-3.2c0,-19.5 -2.4,-38.7 -7.1,-57.4c-0.6,0 -1.1,0 -1.7,0c-27.2,0 -49.3,-22.1 -49.3,-49.3c0,-12.4 4.6,-23.8 12.3,-32.5c-31.2,-42.1 -75.2,-72.4 -125.6,-86.4c-65.9,18.3 -120.3,64.8 -149.1,125.6c12.5,16.1 25.5,32.4 33.9,41.5z"/>
  <path fill="#3c4257" id="svg_5" d="m363,334.9c1.7,-11.8 2.7,-23.8 3,-36.1c-18,12.5 -37.6,23.2 -58.7,32.3c0,0.1 0,0.3 0,0.4c18.5,2.5 37.1,3.7 55.7,3.4z"/>
  <path fill="#3c4257" id="svg_6" d="m398.1,273.2c0.6,14.1 0.8,34.8 -2.3,59.6c29,-3.1 58.1,-9.7 87.2,-19.8c4.6,-18.2 7,-37.3 7,-57c0,-30.6 -5.9,-59.9 -16.6,-86.7c-19,40.9 -44.2,75.6 -75.3,103.9z"/>
  <path fill="#3c4257" id="svg_7" d="m293,486.5c31.2,-35.3 52.4,-75.2 63.7,-119.4c-19.3,0 -38.5,-1.5 -57.6,-4.3c-5.3,7.9 -12.9,14.2 -21.9,17.9l0,0c-6.1,2.6 -12.5,3.8 -19,3.8c-6.4,0 -12.7,-1.2 -18.8,-3.7c-9.6,-3.9 -17.5,-10.7 -22.9,-19.3c-34.5,7.5 -66.2,9.4 -93.7,9.4c-14.6,0 -27.9,-0.5 -39.9,-1c-10.7,-0.4 -21.6,-1.1 -32.4,-2c39.8,72.7 117,122.1 205.5,122.1c12.8,0 25.3,-1 37.5,-3l-0.5,-0.5z"/>
  <path fill="#3c4257" id="svg_8" d="m390,365.6c-8.8,38.7 -24.2,74.6 -46.1,107.2c56.1,-22.8 101.4,-66.8 125.9,-122c-26.5,7.6 -53.1,12.6 -79.8,14.8z"/>
  <path fill="#3c4257" id="svg_9" d="m198.1,332.4c-7.3,-3.5 -11.9,-6.2 -13.4,-7.1c-19.3,-10.1 -37.4,-21.6 -54.9,-35.1c-1.6,0.9 -3.3,1.7 -5,2.4c-6.1,2.6 -12.5,3.8 -19,3.8c-6.4,0 -12.7,-1.2 -18.8,-3.7c-12.2,-5 -21.7,-14.5 -26.8,-26.6c-5.1,-12.2 -5.1,-25.6 -0.1,-37.7c0.3,-0.8 0.7,-1.5 1,-2.3c-2.2,-2.4 -4.4,-4.8 -6.4,-6.9c-6.4,-6.9 -14.6,-16.9 -23.6,-28.2c-6,20.6 -9.2,42.4 -9.2,65c0,27.4 4.7,53.7 13.4,78.2c16.3,1.8 32.6,3.1 48.7,3.7c30.3,1.1 69.8,2.6 114.1,-5.5z"/>
  <circle fill="#3c4257" id="svg_10" r="17.2" cy="247.2" cx="105.7"/>
  <circle fill="#3c4257" id="svg_11" r="18.1" cy="334.9" cx="257.9"/>
 </g>
</svg>