<svg width="16" height="16" xmlns="http://www.w3.org/2000/svg">

 <g>
  <title>background</title>
  <rect fill="none" id="canvas_background" height="402" width="582" y="-1" x="-1"/>
 </g>
 <g>
  <title>Layer 1</title>
  <path fill="#3c4257" id="svg_1" d="m7.972338,0c-4.418,0 -8,3.582 -8,8s3.582,8 8,8s8,-3.582 8,-8s-3.582,-8 -8,-8zm-1,8l2,0c1.103,0 2,0.897 2,2l0,1c0,1.103 -0.897,2 -2,2l0,1l-1,0l0,-1l-1,0c-1.103,0 -2,-0.897 -2,-2l1,0c0,0.551 0.448,1 1,1l1,0l1,0c0.552,0 1,-0.449 1,-1l0,-1c0,-0.551 -0.448,-1 -1,-1l-2,0c-1.103,0 -2,-0.897 -2,-2l0,-1c0,-1.103 0.897,-2 2,-2l1,0l0,-1l1,0l0,1c1.103,0 2,0.897 2,2l-1,0c0,-0.551 -0.448,-1 -1,-1l-2,0c-0.552,0 -1,0.449 -1,1l0,1c0,0.551 0.448,1 1,1z"/>
 </g>
</svg>