<svg width="512" height="512" xmlns="http://www.w3.org/2000/svg">

 <g>
  <title>background</title>
  <rect fill="none" id="canvas_background" height="402" width="582" y="-1" x="-1"/>
 </g>
 <g>
  <title>Layer 1</title>
  <path id="svg_1" fill="#3b4259" d="m304.572,432.067l-97.144,0c-6.702,0 -12.143,5.44 -12.143,12.145s5.44,12.144 12.143,12.144l97.144,0c6.703,0 12.144,-5.439 12.144,-12.144c0,-6.701 -5.441,-12.141 -12.144,-12.145l0,0z"/>
  <path id="svg_2" fill="#3b4259" d="m272.044,482.827c-1.088,1.553 -2.071,3.198 -2.94,4.93l-0.109,0.215l-0.027,0.056l-0.027,0.055c-0.776,1.554 -2.338,2.519 -4.072,2.519l-17.729,0c-1.738,0 -3.303,-0.969 -4.092,-2.545l-0.116,-0.229c-0.879,-1.756 -1.875,-3.424 -2.976,-4.997l32.09,0m32.526,-20.403l-97.144,0c-7.99,0 -14.176,7.719 -11.517,16.104c1.603,5.056 6.721,8.184 12.027,8.184l0.182,0c7.013,0 13.424,3.965 16.562,10.237l0.127,0.254c4.232,8.451 12.871,13.795 22.325,13.795l17.729,0c9.453,0 18.092,-5.343 22.318,-13.795l0.129,-0.254c3.137,-6.272 9.547,-10.237 16.561,-10.237l0.184,0c5.308,0 10.424,-3.126 12.027,-8.184c2.665,-8.387 -3.521,-16.104 -11.51,-16.104l0,0z"/>
  <path id="svg_3" fill="#3b4259" d="m256.001,1c-6.704,0 -12.145,5.44 -12.145,12.143l0,48.571c0,6.703 5.44,12.143 12.145,12.143c6.703,0 12.144,-5.44 12.144,-12.143l0,-48.571c0,-6.703 -5.441,-12.143 -12.144,-12.143l0,0z"/>
  <path id="svg_4" fill="#3b4259" d="m101.447,65.019c-3.108,0 -6.217,1.186 -8.584,3.556c-4.742,4.741 -4.742,12.427 0,17.169l34.344,34.347c2.368,2.375 5.478,3.559 8.584,3.559c3.109,0 6.217,-1.184 8.585,-3.559c4.742,-4.741 4.742,-12.428 0,-17.168l-34.344,-34.347c-2.367,-2.372 -5.476,-3.557 -8.585,-3.557l0,0z"/>
  <path id="svg_5" fill="#3b4259" d="m86,219.569l-48.571,0c-6.702,0 -12.143,5.44 -12.143,12.144c0,6.703 5.44,12.143 12.143,12.143l48.571,0c6.704,0 12.143,-5.44 12.143,-12.143s-5.44,-12.144 -12.143,-12.144l0,0z"/>
  <path id="svg_6" fill="#3b4259" d="m135.792,339.781c-3.108,0 -6.217,1.186 -8.584,3.556l-34.346,34.347c-4.741,4.741 -4.741,12.428 0,17.17c2.368,2.372 5.476,3.556 8.584,3.556c3.108,0 6.217,-1.184 8.585,-3.556l34.346,-34.348c4.742,-4.74 4.742,-12.428 0,-17.169c-2.368,-2.37 -5.477,-3.556 -8.585,-3.556l0,0z"/>
  <path id="svg_7" fill="#3b4259" d="m376.208,339.781c-3.106,0 -6.214,1.186 -8.584,3.556c-4.741,4.741 -4.741,12.429 0,17.169l34.347,34.348c2.372,2.372 5.479,3.556 8.584,3.556c3.108,0 6.21,-1.184 8.585,-3.556c4.741,-4.742 4.741,-12.43 0,-17.17l-34.347,-34.347c-2.371,-2.37 -5.478,-3.556 -8.585,-3.556l0,0z"/>
  <path id="svg_8" fill="#3b4259" d="m474.57,219.57l-48.57,0c-6.702,0 -12.144,5.441 -12.144,12.144s5.44,12.143 12.144,12.143l48.57,0c6.703,0 12.144,-5.44 12.144,-12.143c-0.001,-6.703 -5.441,-12.144 -12.144,-12.144l0,0z"/>
  <path id="svg_9" fill="#3b4259" d="m410.554,65.018c-3.106,0 -6.214,1.186 -8.584,3.557l-34.347,34.346c-4.741,4.742 -4.741,12.427 0,17.169c2.368,2.375 5.476,3.559 8.585,3.559c3.107,0 6.211,-1.184 8.584,-3.559l34.347,-34.346c4.741,-4.742 4.741,-12.428 0,-17.169c-2.371,-2.371 -5.479,-3.557 -8.585,-3.557l0,0z"/>
  <path id="svg_10" fill="#3b4259" d="m305.271,401.786c7.558,-68.328 78.229,-83.55 78.229,-164.001c-0.001,-70.416 -57.085,-127.5 -127.5,-127.5c-70.416,0 -127.5,57.084 -127.5,127.5c0,80.454 70.671,95.673 78.23,164.001c-6.375,0.365 -11.444,5.604 -11.444,12.07c0,6.702 5.44,12.144 12.143,12.144l97.144,0c6.703,0 12.144,-5.44 12.144,-12.144c0,-6.465 -5.072,-11.704 -11.446,-12.07zm-82.279,-245.577c-25.706,10.412 -45.196,32.684 -52.129,59.567c-1.064,4.104 -4.761,6.83 -8.817,6.83c-0.753,0 -1.518,-0.091 -2.277,-0.291c-4.87,-1.258 -7.802,-6.217 -6.545,-11.093c8.373,-32.444 31.899,-59.322 62.93,-71.896c1.122,-0.451 2.278,-0.664 3.416,-0.664c3.605,0 7.013,2.144 8.447,5.684c1.882,4.668 -0.364,9.976 -5.025,11.863z"/>
 </g>
</svg>