<svg width="32" height="32" xmlns="http://www.w3.org/2000/svg">

 <g>
  <title>background</title>
  <rect fill="none" id="canvas_background" height="402" width="582" y="-1" x="-1"/>
 </g>
 <g>
  <title>Layer 1</title>
  <path fill="#3c4257" id="svg_1" d="m25.387,13.416c-1.382,-1.163 -2.807,-2.363 -4.115,-4.299l3.128,-5.632c0.22,-0.396 0.146,-0.89 -0.179,-1.204s-0.821,-0.371 -1.209,-0.138l-2.752,1.651l-0.533,-0.533c-0.923,-0.924 -2.425,-0.924 -3.349,0l-0.378,0.378l-0.378,-0.378c-0.923,-0.924 -2.426,-0.924 -3.349,0l-0.533,0.533l-2.752,-1.651c-0.389,-0.233 -0.884,-0.176 -1.21,0.138c-0.325,0.315 -0.398,0.809 -0.178,1.204l3.128,5.632c-1.308,1.936 -2.733,3.136 -4.115,4.299c-2.372,1.997 -4.613,3.883 -4.613,8.74c0,2.433 0.618,4.232 1.889,5.501c2.364,2.359 6.444,2.354 11.19,2.341l0.921,-0.001l0.92,0.001c0.3,0.001 0.598,0.002 0.892,0.002c4.355,0 8.084,-0.133 10.299,-2.343c1.271,-1.268 1.889,-3.068 1.889,-5.501c0,-4.857 -2.241,-6.743 -4.613,-8.74zm-8.387,5.584c1.103,0 2,0.897 2,2l0,1c0,1.103 -0.897,2 -2,2l0,1c0,0.553 -0.448,1 -1,1s-1,-0.447 -1,-1l0,-1l-1,0c-0.552,0 -1,-0.447 -1,-1s0.448,-1 1,-1l3,0l0,-1l-2,0c-1.103,0 -2,-0.897 -2,-2l0,-1c0,-1.103 0.897,-2 2,-2l0,-1c0,-0.553 0.448,-1 1,-1s1,0.447 1,1l0,1l1,0c0.552,0 1,0.447 1,1s-0.448,1 -1,1l-3,0l0,1l2,0z"/>
 </g>
</svg>