<svg width="600" height="600" xmlns="http://www.w3.org/2000/svg">

 <g>
  <title>background</title>
  <rect fill="none" id="canvas_background" height="402" width="582" y="-1" x="-1"/>
 </g>
 <g>
  <title>Layer 1</title>
  <path fill="#3c4257" id="svg_2" d="m324.962129,306.628l277.844,0c0,-66.88 -23.638,-128.229 -63.008,-176.182l-214.836,176.182z"/>
  <path fill="#3c4257" id="svg_3" d="m259.206,402.064c-8.265,-2.963 -19.449,-2.9 -33.514,0.188l33.003,68.097c9.728,-6.714 16.311,-14.904 19.765,-24.56c3.455,-9.654 3.061,-18.844 -1.171,-27.578c-3.781,-7.794 -9.803,-13.179 -18.083,-16.147z"/>
  <path fill="#3c4257" id="svg_4" d="m124.159,320.772c-2.196,7.963 -1.661,15.323 1.614,22.077c2.986,6.169 8.009,10.815 15.064,13.944c7.047,3.123 15.917,4.109 26.606,2.947l-29.287,-60.42c-7.135,6.338 -11.806,13.49 -13.997,21.452z"/>
  <path fill="#3c4257" id="svg_5" d="m277.704129,322.156l214.844,-176.18c-50.963,-62.064 -128.274,-101.667 -214.844,-101.667c-153.448,0 -277.846,124.397 -277.846,277.847c0,153.447 124.398,277.844 277.846,277.844c153.452,0 277.853,-124.397 277.853,-277.844l-277.853,0zm51.958,129.227c-8.338,21.876 -25.393,41.067 -51.13,57.568l15.825,32.655l-30.471,14.771l-15.409,-31.776c-25.423,9.301 -48.76,11.331 -69.984,6.1c-21.225,-5.24 -39.496,-18.307 -54.823,-39.209l52.49,-31.479c6.758,8.229 14.859,14.221 24.29,17.984c9.443,3.771 18.677,5.33 27.71,4.685l-35.468,-73.165c-30.622,6.79 -55.552,6.684 -74.777,-0.313c-19.217,-7 -33.411,-19.932 -42.553,-38.792c-9.251,-19.089 -9.777,-38.644 -1.56,-58.65c8.206,-20.012 23.893,-36.847 47.027,-50.511l-8.384,-17.289l30.479,-14.773l8.39,17.289c23.344,-8.585 44.133,-10.863 62.351,-6.827c18.222,4.042 33.386,13.9 45.496,29.599l-50.38,31.54c-9.882,-12.179 -22.801,-17.417 -38.764,-15.716l33.093,68.277c37.3,-8.728 64.958,-10.026 83,-3.885c18.025,6.138 31.608,18.639 40.75,37.5c10.213,21.07 11.151,42.545 2.802,64.417z"/>
 </g>
</svg>