<svg width="512" height="512" xmlns="http://www.w3.org/2000/svg">

 <g>
  <title>background</title>
  <rect fill="none" id="canvas_background" height="402" width="582" y="-1" x="-1"/>
 </g>
 <g>
  <title>Layer 1</title>
  <path fill="#3c4257" id="svg_2" d="m476.997,206.118799l-37.798,-3.605c-3.846,-13.101 -8.981,-25.644 -15.398,-37.402l24.117,-29.197c0,0 21.214,-21.218 -14.143,-56.575c-35.357,-35.356 -56.562,-14.143 -56.562,-14.143l-29.209,24.118c-11.754,-6.421 -24.293,-11.548 -37.415,-15.403l-3.593,-37.794c0,0 0,-30.003 -49.996,-30.003s-49.996,30.003 -49.996,30.003l-3.593,37.794c-13.114,3.854 -25.661,8.981 -37.415,15.403l-29.209,-24.118c0,0 -21.206,-21.214 -56.562,14.143c-35.357,35.357 -14.143,56.575 -14.143,56.575l24.118,29.197c-6.417,11.758 -11.553,24.301 -15.398,37.402l-37.799,3.605c0,0 -30.003,0 -30.003,49.996s30.003,49.996 30.003,49.996l37.799,3.61c3.845,13.097 8.98,25.635 15.398,37.397l-24.118,29.201c0,0 -21.214,21.223 14.143,56.57c35.357,35.356 56.562,14.143 56.562,14.143l29.209,-24.117c11.753,6.426 24.301,11.544 37.415,15.398l3.593,37.798c0,0 0,30.003 49.996,30.003s49.996,-30.003 49.996,-30.003l3.593,-37.798c13.114,-3.854 25.661,-8.973 37.415,-15.398l29.209,24.117c0,0 21.205,21.214 56.562,-14.143c35.356,-35.348 14.143,-56.57 14.143,-56.57l-24.117,-29.201c6.417,-11.763 11.553,-24.301 15.398,-37.397l37.798,-3.61c0,0 30.003,0 30.003,-49.996s-30.003,-49.996 -30.003,-49.996zm-219.997,139.282c-47.616,0 -89.286,-41.679 -89.286,-89.286s41.669,-89.286 89.286,-89.286s89.286,41.678 89.286,89.286s-41.67,89.286 -89.286,89.286z"/>
 </g>
</svg>