<svg width="128" height="128" xmlns="http://www.w3.org/2000/svg">
 <title/>

 <g>
  <title>background</title>
  <rect fill="none" id="canvas_background" height="402" width="582" y="-1" x="-1"/>
 </g>
 <g>
  <title>Layer 1</title>
  <path fill="#3c4257" stroke="#263b7e" id="svg_1" d="m99.99956,65.767c1.2456,1.52051 2.6212,3.23547 4,5.01489l0,-13.5408l-4,4.00659l0,4.51932z"/>
  <path fill="#3c4257" stroke="#3c4257" id="svg_2" d="m94.50684,36.01367a9.485,9.485 0 0 1 6.57324,2.61719l2.91992,2.78479l0,-35.41565a6.00476,6.00476 0 0 0 -6,-6l-84,0a6.00476,6.00476 0 0 0 -6,6l0,116a6.00476,6.00476 0 0 0 6,6l84,0a6.00476,6.00476 0 0 0 6,-6l0,-0.73938l-2.41113,-1.05847a6.01871,6.01871 0 0 1 -1.4209,-0.875c-2.13281,0.27441 -4.59375,0.54395 -6.86328,0.78516c-0.14453,0.02637 -0.29,0.05566 -0.43652,0.085a13.4046,13.4046 0 0 1 -2.12793,0.29688c-0.17775,0.00684 -12.458,0.501 -12.458,0.501c-0.23437,0.00781 -0.45312,0.01172 -0.67383,0.01172c-0.52734,0 -1.05859,-0.02148 -1.58887,-0.043c-0.38867,-0.0166 -0.77734,-0.03418 -1.16211,-0.03613c-5.28809,-0.03516 -11.8584,-0.0791 -15.75488,-3.81348a13.48474,13.48474 0 0 0 -2.96387,-1.39355c-2.95508,-1.1543 -7.28516,-2.8457 -9.46777,-7.28516l-5.17676,2.53418l-5.75294,6.90523a6.02626,6.02626 0 0 1 -9.48047,-0.41211l-0.0459,-0.06543l-0.75293,0.39941a5.99466,5.99466 0 0 1 -5.14551,0.23242a5.95826,5.95826 0 0 1 -2.31836,0.47168a6.03346,6.03346 0 0 1 -2.61914,-0.60352a5.99981,5.99981 0 0 1 -2.77832,-8.0127l3.09668,-6.39453a5.9992,5.9992 0 0 1 10.93555,0.30273a5.98889,5.98889 0 0 1 4.61719,0.74316l1.93848,-2.375l7.65625,-15.89648a6.19112,6.19112 0 0 1 1.16113,-1.6377l1.39063,-1.39355c-0.335,-0.39551 -0.78027,-0.92285 -1.38086,-1.63867a9.03407,9.03407 0 0 1 -0.38574,-10.86816c3.41113,-4.667 7.47266,-9.54687 14.03809,-13.61328c0.66992,-0.415 1.32813,-0.85449 1.98828,-1.29492c2.81445,-1.876 6.00391,-4.002 10.14063,-4.50879a53.37233,53.37233 0 0 1 5.5498,-0.30469c0.75977,0 1.4834,0.02051 2.166,0.05957l3.04731,-3.06444l-54.56,0a2,2 0 0 1 0,-4l58.55,0l5.21075,-5.2041a9.46765,9.46765 0 0 1 6.74609,-2.78223zm-70.50684,18.98633l21,0a2,2 0 0 1 0,4l-21,0a2,2 0 0 1 0,-4zm0,-41l64,0a2,2 0 0 1 0,4l-64,0a2,2 0 0 1 0,-4zm0,10l64,0a2,2 0 0 1 0,4l-64,0a2,2 0 0 1 0,-4zm0,14a2,2 0 0 1 0,-4l64,0a2,2 0 0 1 0,4l-64,0z"/>
  <path fill="#3c4257" stroke="#3c4257" id="svg_3" d="m48.06,76.132017l-0.06,-0.06a2.30667,2.30667 0 0 1 0.2,-1c3.35,-4.56 6.64,-8.25 11.68,-11.38c0.75,-0.46 1.49,-0.96 2.22,-1.46c2.19,-1.49005 4.25,-2.9 6.67,-3.2a39.20453,39.20453 0 0 1 4.47,-0.25l-13,13.02c-4.17,0.35 -6.26,3.85 -9.1,6.4a1.21543,1.21543 0 0 1 -1.3,0.07l-1.78,-2.14zm5.58,22.77l-9.34,4.54c0.15,-0.61 4.34,-9.31 4.34,-9.31m2.25,-3.38l42.53,-46.52a1.54314,1.54314 0 0 1 2.14,-0.03s3.95,3.77 3.97,3.78a1.55439,1.55439 0 0 1 0.02,2.18l-44.26,44.34l-4.4,-3.75zm25.96,-5.98l3.85,6.92c-0.07,0.24005 -0.15,0.49005 -0.22,0.74005c-1.01,3.47 -2.53,8.7 -5.42,9.2l-3.26,0.55c-1.98,0.34 -4.1,-1.26 -6.01,-1.62a18.90315,18.90315 0 0 0 -7.1,0.12l15.12,-19.07005l3.04,3.16zm27.81,27.98l-0.05,0c-2.29,0.47 -7.67,1.04 -10.56,1.35c-0.04,0 -0.08,0.01 -0.12,0.01c-5.59,0.94 -11.59,0.79 -17.24005,0.74c-3.24,-0.02 -8.67,-0.06 -10.27,-1.59a16.259,16.259 0 0 0 -5.59,-3.07c-2.86,-1.12 -4.67,-1.94 -5.35,-3.71a2.8016,2.8016 0 0 1 1.34,-1.16a16.06778,16.06778 0 0 1 8.23,-0.82c2.58,0.47 4.66,2.1 7.42,1.62006l3.26,-0.55c5.36,-0.91 7.31,-7.6 8.59,-12.02c0.16,-0.54 0.3,-1.04 0.44,-1.49a1.95755,1.95755 0 0 0 -0.16,-1.57s-4.43,-7.99005 -4.44,-8a6.37922,6.37922 0 0 0 -1.73,-1.58l11.26005,-15.20006c1.53,1.78 9.3,10.9 13.1,16.86a2.0568,2.0568 0 0 0 0.65,0.63l5.27,3.2l-4.05,26.35zm11.64,-28.68a4.419,4.419 0 0 0 -3.44,0.49005a3.74029,3.74029 0 0 0 -0.55,0.41l-6.4,-4.95005c-4.31,-6.62 -12.53,-16.16 -13.39,-17.15c0,0 9.85,-9.87 9.86,-9.88a5.60733,5.60733 0 0 0 -0.09,-7.9l-3.97,-3.78a5.55875,5.55875 0 0 0 -7.73,0.09l-13.58,13.6a42.1281,42.1281 0 0 0 -8.73,0.06c-4.05,0.5 -7.16,3.16 -10.51,5.23a45.1624,45.1624 0 0 0 -12.91,12.58a4.99668,4.99668 0 0 0 0.22,5.93s2.02,2.41 2.12,2.49a4.927,4.927 0 0 0 2.51,1.06l-4.88,4.89a2.28525,2.28525 0 0 0 -0.38,0.54l-7.86,16.32l-5.26,6.45l-1.63,-2.31a2.00442,2.00442 0 0 0 -2.57,-0.61l-3.15,1.67l-0.94,-3.89a2.001,2.001 0 0 0 -3.74,-0.4l-3.04883,6.29442a2.08166,2.08166 0 0 0 0.57916,2.59755a1.9975,1.9975 0 0 0 2.96967,-0.75197l0.67,-1.37l0.23,0.97a1.9921,1.9921 0 0 0 1.13,1.35a1.95963,1.95963 0 0 0 1.75,-0.05l3.87,-2.06l2.08,2.94a2.0209,2.0209 0 0 0 3.14,0.16l6.3,-7.56l11.56,-5.66a4.00588,4.00588 0 0 0 -0.66,3.65c1.3,3.74 4.71,5.08 7.72,6.26a13.40367,13.40367 0 0 1 4.28,2.23c2.75,2.63 8.44,2.67 13.01,2.7c1.08,0 2.17,0.11 3.24,0.07c0,0 12.45,-0.5 12.46,-0.5a17.83123,17.83123 0 0 0 2.17,-0.35c3.48,-0.37 6.92,-0.75995 9.28,-1.12a2.00473,2.00473 0 0 0 1.17,1.51s8.49185,3.704 13.16992,5.74245a1.99877,1.99877 0 0 0 2.79674,-1.83446l0,-35.56016a2,2 0 0 0 -1.50641,-1.93814l-1.36025,1.34031z"/>
 </g>
</svg>