<svg width="64" height="64" xmlns="http://www.w3.org/2000/svg">

 <g>
  <title>background</title>
  <rect fill="none" id="canvas_background" height="402" width="582" y="-1" x="-1"/>
 </g>
 <g>
  <title>Layer 1</title>
  <polygon id="svg_2" fill="#3c4257" points="36.91,9 27.324,19 46.496,19  "/>
  <polygon id="svg_3" fill="#3c4257" points="18.324,19 24.496,19 29.996,13.5 26.91,10  "/>
  <path id="svg_4" fill="#3c4257" d="m42,36l0,4c0,1.654 1.346,3 3,3l7,0l1,0c0.551,0 1,-0.449 1,-1l0,-8c0,-0.551 -0.449,-1 -1,-1l-8,0c-1.654,0 -3,1.346 -3,3zm5,0c1.1,0 2,0.9 2,2s-0.9,2 -2,2s-2,-0.9 -2,-2s0.9,-2 2,-2z"/>
  <path id="svg_5" fill="#3c4257" d="m51,20.017l0,-2.017c0,-1.654 -1.346,-3 -3,-3l-2.676,0l4.289,4.289c0.507,0.169 0.972,0.415 1.387,0.728z"/>
  <path id="svg_6" fill="#3c4257" d="m12,19l3.496,0l4,-4l-7.496,0c-1.103,0 -2,0.897 -2,2s0.897,2 2,2z"/>
  <path id="svg_7" fill="#3c4257" d="m11.110649,55l37,0c1.654,0 3,-1.346 3,-3l0,-7l-6,0c-2.757,0 -5,-2.243 -5,-5l0,-4c0,-2.757 2.243,-5 5,-5l6,0l0,-7c0,-1.348 -0.905,-2.534 -2.201,-2.885c-0.271,-0.079 -0.525,-0.115 -0.799,-0.115l-23.09,0l-9,0l-3.91,0c-0.732,0 -1.409,-0.212 -2,-0.557l0,33.557c0,0.551 0.449,1 1,1z"/>
 </g>
</svg>