<svg width="100" height="100" xmlns="http://www.w3.org/2000/svg">

 <g>
  <title>background</title>
  <rect fill="none" id="canvas_background" height="402" width="582" y="-1" x="-1"/>
 </g>
 <g>
  <title>Layer 1</title>
  <path id="svg_2" fill="none" d="m50,19.997c-16.545,0 -30.007,13.456 -30.007,30.003c0,16.549 13.462,29.997 30.007,29.997s30.007,-13.448 30.007,-29.997c0,-16.548 -13.462,-30.003 -30.007,-30.003zm-11.539,19.907c0.012,-0.2 0.025,-0.399 0.041,-0.601c0.1,-6.331 1.846,-8.999 4.515,-10.119c1.708,-1.346 3.995,-2.184 7.031,-2.184c3.044,0 5.338,0.859 7.055,2.237c2.422,1.07 4.061,3.469 4.354,8.835c0.085,0.622 0.143,1.245 0.176,1.861c0.727,0.271 1.043,1.927 0.709,3.825c-0.309,1.745 -1.064,3.111 -1.785,3.326c-1.139,3.109 -3.075,6.108 -5.463,7.98c-1.526,1.196 -3.235,1.936 -5.045,1.936c-1.82,0 -3.54,-0.749 -5.074,-1.959c-2.37,-1.869 -4.293,-4.848 -5.427,-7.938c-0.75,-0.107 -1.564,-1.518 -1.887,-3.346c-0.351,-1.979 0.009,-3.697 0.8,-3.853zm33.675,23.722c-4.586,7.416 -12.792,12.37 -22.136,12.37c-9.345,0 -17.551,-4.954 -22.137,-12.371c2.569,-3.708 7.729,-1.184 14.406,-6.343c0.041,1.595 3.483,2.883 7.73,2.883c4.245,0 7.688,-1.288 7.729,-2.883c6.68,5.16 11.839,2.634 14.408,6.344z"/>
  <path fill="#3c4257" id="svg_3" d="m50,60.165c-4.247,0 -7.689,-1.288 -7.73,-2.883c-6.678,5.159 -11.837,2.635 -14.406,6.343c4.585,7.417 12.791,12.371 22.136,12.371c9.344,0 17.55,-4.954 22.136,-12.37c-2.568,-3.71 -7.728,-1.184 -14.406,-6.344c-0.042,1.595 -3.485,2.883 -7.73,2.883z"/>
  <path fill="#3c4257" id="svg_4" d="m39.547,47.104c1.134,3.09 3.057,6.068 5.427,7.938c1.534,1.21 3.254,1.959 5.074,1.959c1.81,0 3.519,-0.739 5.045,-1.936c2.388,-1.872 4.324,-4.872 5.463,-7.98c0.721,-0.215 1.477,-1.581 1.785,-3.326c0.334,-1.898 0.018,-3.554 -0.709,-3.825c-0.033,-0.616 -0.091,-1.239 -0.176,-1.861c-0.293,-5.366 -1.932,-7.765 -4.354,-8.835c-1.716,-1.379 -4.01,-2.238 -7.054,-2.238c-3.036,0 -5.323,0.838 -7.031,2.185c-2.669,1.121 -4.415,3.788 -4.515,10.119c-0.016,0.201 -0.029,0.401 -0.041,0.601c-0.791,0.156 -1.151,1.874 -0.801,3.854c0.322,1.828 1.137,3.238 1.887,3.345z"/>
  <path fill="#3c4257" id="svg_5" d="m91.312,40.384l-6.783,-1.134c-0.652,-2.1 -1.496,-4.131 -2.52,-6.069l3.943,-5.519c1.373,-1.684 1.248,-4.11 -0.283,-5.635l-7.697,-7.697c-0.791,-0.793 -1.844,-1.228 -2.971,-1.228c-0.973,0 -1.916,0.334 -2.584,0.888l-5.6,4c-1.938,-1.024 -3.979,-1.867 -6.07,-2.522l-1.118,-6.686c-0.218,-2.155 -2.019,-3.782 -4.191,-3.782l-10.876,0c-2.172,0 -3.973,1.627 -4.176,3.688l-1.125,6.78c-2.1,0.655 -4.141,1.498 -6.078,2.522l-5.52,-3.943c-0.751,-0.613 -1.7,-0.916 -2.648,-0.916c-1.097,0 -2.193,0.404 -2.987,1.199l-7.697,7.697c-1.539,1.531 -1.656,3.958 -0.342,5.555l4.002,5.599c-1.024,1.938 -1.867,3.97 -2.521,6.069l-6.688,1.12c-2.157,0.218 -3.784,2.019 -3.784,4.19l0,10.875c0,2.183 1.627,3.976 3.689,4.18l6.782,1.133c0.646,2.084 1.496,4.124 2.521,6.07l-3.937,5.519c-1.38,1.678 -1.256,4.103 0.276,5.639l7.689,7.694c0.799,0.791 1.852,1.234 2.978,1.234c0.974,0 1.917,-0.342 2.585,-0.894l5.6,-4.001c1.945,1.023 3.979,1.873 6.078,2.52l1.11,6.688c0.22,2.157 2.021,3.783 4.193,3.783l10.877,0c2.172,0 3.973,-1.626 4.176,-3.688l1.133,-6.782c2.091,-0.646 4.125,-1.496 6.07,-2.52l5.52,3.936c0.75,0.614 1.699,0.917 2.647,0.917c1.099,0 2.196,-0.405 2.987,-1.2l7.689,-7.69c1.539,-1.532 1.664,-3.957 0.349,-5.562l-4.001,-5.592c1.023,-1.939 1.867,-3.979 2.52,-6.078l6.682,-1.122c2.163,-0.207 3.79,-2 3.79,-4.183l0,-10.875c-0.001,-2.172 -1.628,-3.973 -3.689,-4.177zm-41.312,39.612c-16.545,0 -30.007,-13.447 -30.007,-29.997c0,-16.547 13.462,-30.003 30.007,-30.003s30.007,13.456 30.007,30.004c0,16.549 -13.462,29.996 -30.007,29.996z"/>
 </g>
</svg>