<svg xmlns="http://www.w3.org/2000/svg" xmlns:xlink="http://www.w3.org/1999/xlink" viewBox="0 0 450 450" xmlns:v="https://vecta.io/nano"><style><![CDATA[.e{fill:#d5e1fa}.f{fill:#383838}.g{fill:#fcafaf}.h{opacity:.5}.i{fill:#e1ebff}.j{fill:#edf3ff}.k{fill:#32b5b3}.l{fill:#2b2b2b}.m{fill:#ffbd48}.n{fill:#ffab3e}.o{fill:#25a59f}.p{fill:#ffc5c5}.q{fill:#fbc6b8}.r{fill:#fed085}.s{fill:#4052f2}]]></style><g class="h j"><path d="M90.448 81.783c10.894-6.526 23.486-10.068 36.159-10.534 10.963-.389 21.027 4.224 31.591 4.252 12.68.027 25.221-1.168 37.985-.385 25.818 1.585 51.646 6.974 75.143 18.012l2.706 1.295c4.796 2.352 9.478 4.978 14.009 7.843 29.097 18.395 52.193 46.926 59.107 80.46 2.966 14.404 2.557 30.593-6.372 42.268-8.139 10.643-22.199 16.038-28.835 27.673-9.197 16.116-.655 37.48-8.119 54.452-4.29 9.766-13.511 16.754-23.573 20.229-10.073 3.491-20.963 3.822-31.601 3.129-35.768-2.329-70.362-16.011-99.598-36.743-29.246-20.725-53.268-48.304-72.039-78.837-14.307-23.253-25.969-49.944-22.807-77.05 2.67-22.903 16.467-44.238 36.243-56.064z"/></g><g class="h j"><path d="M392.297 291.489c-5.745 11.981-14.561 22.845-26.358 28.957s-26.77 6.836-38.136-.034c-11.375-6.872-17.771-21.929-12.981-34.318 3.455-8.919 11.521-15.022 18.532-21.523 4.621-4.284 9.136-9.315 11.388-15.294 1.927-5.151.133-9.758 3.833-14.017 6.639-7.632 18.711-9.952 28.025-6.627 11.482 4.096 19.475 15.396 21.684 27.387s-.718 24.469-5.988 35.47z"/></g><ellipse cx="222.264" cy="362.869" rx="175" ry="15.906" class="j"/><path d="M81.316 342.799c.048-7.397.136-13.241.309-14.144.134-.706.443-1.569 1.161-1.599a.91.91 0 0 1 .565.168c.253.163.469.424.658.672l3.01 3.987c1.062 1.405 2.18 2.855 3.765 3.609 1.759.84 3.828.689 5.727.274 1.906-.415 3.765-1.079 5.706-1.211 1.947-.139 4.069.358 5.311 1.855.383.462.697 1.03 1.238 1.281.42-2.288-.461-4.686-1.962-6.462-.043-.045-.08-.098-.129-.143-1.484-1.703-3.484-2.884-5.571-3.769-3.751-1.588-7.803-2.286-11.82-2.971l-5.284-.907c-.616-.112-1.266-.214-1.868-.034-.916.27-1.531 1.129-1.948 1.992-.409.838-.565 8.328-.591 17.402h1.722z" class="k"/><path d="M54.483 324.219l.115.923a16.88 16.88 0 0 1-.155 5.978c-.298 1.417-.724 4.826-2.775 3.428-.547-.365-.956-.895-1.349-1.417l-3.772-5.004-.454-.613a5.38 5.38 0 0 0 1.498-.286c1.49-.538 2.753-1.574 4.179-2.245a9.46 9.46 0 0 1 2.712-.764z" class="o"/><path d="M62.705 327.02c1.076 1.221 3.225 7.793 5.625 15.779h1.364c-2.534-8.369-4.832-15.342-5.995-16.659-1.55-1.768-3.308-3.331-5.118-4.804a.67.67 0 0 0 .05-.132c.178-.592.111-1.233.052-1.851-.075-.853-.167-1.713-.488-2.503-.326-.802-.943-1.51-1.756-1.748-1.323-.389-2.653.516-3.72 1.379l-5.497 4.396c-.997.796-2.058 1.686-2.32 2.933-.281 1.311.402 2.577 1.189 3.705.517-.021 1.032-.127 1.498-.286 1.49-.538 2.753-1.574 4.179-2.245a9.46 9.46 0 0 1 2.712-.764c-.012-.223-.016-.463.015-.687.083-.542.428-1.067.941-1.215.625-.19 1.28.235 1.925.138.121-.017.238-.046.354-.117 1.771 1.445 3.498 2.962 4.987 4.682z" class="k"/><path d="M61.341 265.737l-.141.919a16.88 16.88 0 0 1-1.779 5.709c-.673 1.282-2.012 4.446-3.605 2.542-.427-.5-.676-1.122-.911-1.731l-2.264-5.843-.27-.714a5.38 5.38 0 0 0 1.52.134c1.58-.111 3.078-.764 4.633-1.02a9.46 9.46 0 0 1 2.818.004zm13.173 46.554c.006.073.006.151.006.229h.011l-.017-.229z" class="o"/><g class="k"><path d="M52.368 266.621c.508.117 1.028.156 1.525.134 1.575-.112 3.077-.765 4.63-1.022.938-.14 1.888-.134 2.821.006.045-.218.112-.452.201-.659.229-.497.704-.91 1.234-.91.653-.011 1.167.575 1.815.659.123.011.24.017.374-.017 1.307 1.871 2.558 3.804 3.519 5.864 1.765 3.692 3.904 30.886 4.675 41.308l.039.575 1.318-.039c0-.078 0-.156-.006-.229v-.045l-.307-11.176c.598-.648 1.357-1.095 2.089-1.569 4.937-3.211 8.92-8.082 10.428-13.751.29-1.095.508-2.268 1.201-3.156.698-.905 3.418-.67 4.345-.006.441-2.268-1.798-5.496-3.58-6.959-.553-.458-1.229-.821-1.932-.827-1.385-.028-1.569 1.318-2.329 2.134-.989 1.033-2.251 1.882-3.312 2.837-2.072 1.91-4.01 3.977-5.49 6.373-1.123 1.821-1.955 3.809-2.474 5.876-.084.329-.156.665-.223.994-.961-10.31-2.156-20.654-3.245-22.916-1.005-2.128-2.273-4.111-3.614-6.021.039-.039.061-.073.089-.112.33-.519.441-1.156.553-1.765.162-.843.307-1.698.212-2.541-.095-.86-.497-1.709-1.212-2.161-1.167-.737-2.686-.218-3.954.313l-6.49 2.726c-1.173.497-2.441 1.061-3.027 2.189-.631 1.19-.318 2.592.128 3.893z"/><path d="M74 342.799h1.248l-.729-30.279-1.318.039-.039-.575.352 10.405.486 20.41zm-6.373-32.245a7.15 7.15 0 0 0 .86-.822l.231-.265.147 8.423c.072 3.477.148 7.098.882 10.589.299 1.421 1.089 7.196 2.137 14.32h1.339l-2.167-14.584c-.722-3.376-.78-6.932-.858-10.359l-.187-10.374c.237-.437.459-.88.682-1.321.368-.727.728-1.583.338-2.281-.352-.677-1.195-.874-1.933-1.02a54.93 54.93 0 0 1-15.403-5.528c-1.335-.721-2.688-1.514-4.211-1.626-1.743-.118-3.452.721-4.754 1.904-1.303 1.176-2.257 2.68-3.185 4.172-.345.531-.695 1.117-.592 1.739l.001.007c.239 1.533 1.872.859 2.802.705 1.333-.206 2.772-.307 3.999.343.946.49 1.624 1.353 2.362 2.117 2.797 2.966 6.659 4.89 10.703 5.342 2.367.276 4.951-.007 6.809-1.481z"/></g><path d="M68.336 308.816l.151.916a7.15 7.15 0 0 1-.86.822c-1.858 1.474-4.442 1.757-6.809 1.481-4.044-.452-7.906-2.376-10.703-5.342-.737-.764-1.416-1.628-2.362-2.117-1.227-.649-2.666-.549-3.999-.343-.929.153-2.562.828-2.802-.705l-.001-.007c.77-.828 1.979-1.494 2.67-1.759 1.448-.548 3.036-.624 4.581-.543 3.077.165 6.086.966 9.061 1.76l7.579 2.019c.855.229 1.748.48 2.373 1.105.701.709.926 1.743 1.121 2.713z" class="o"/><path d="M76.716 342.799h1.41l-.311-22.349.004-1.527c.017-1.283.112-2.747 1.11-3.55 1.031-.819 2.503-.561 3.811-.443 4.28.381 8.696-1.39 11.518-4.626.834-.945 1.553-2.026 2.596-2.737 1.036-.717 2.557-.95 3.508-.123.134-1.371-.437-2.739-1.384-3.757-.302-.331-.656-.632-1.035-.877-1.53-1.001-3.463-1.263-5.283-1.029-1.813.234-3.542.925-5.199 1.715-2.484 1.191-4.862 2.613-7.08 4.238-1.119.823-2.22 1.727-2.905 2.929-.847 1.501-.953 3.291-1.022 5.018-.136 3.623.012 11.242.052 14.87l.208 12.248z" class="k"/><path d="M100.363 307.444c-.951-.827-2.473-.594-3.508.123-1.043.711-1.762 1.792-2.596 2.737-2.822 3.236-7.238 5.006-11.518 4.626-1.309-.117-2.78-.375-3.811.443-.997.803-1.093 2.267-1.11 3.55l-.004 1.527c-.724-.764-.911-2.05-.967-3.031-.105-1.813.526-3.69 1.831-4.984 1.079-1.065 2.498-1.714 3.892-2.34l7.822-3.516c2.767-1.239 5.58-2.501 8.586-2.89.947 1.018 1.518 2.386 1.384 3.757z" class="o"/><path d="M63.612 292.724c1.121.62 1.467 2.046 1.704 3.306l.267 1.503 7.205 45.266h1.308l-5.487-35.54-2.505-14.657c-.365-1.689-.777-3.434-1.87-4.768-.882-1.066-2.122-1.767-3.366-2.385-2.464-1.219-5.051-2.212-7.703-2.958-1.767-.493-3.59-.876-5.416-.795-1.833.082-3.693.672-5.027 1.922a5.37 5.37 0 0 0-.869 1.042c-.758 1.165-1.085 2.612-.717 3.939.795-.978 2.334-1.011 3.477-.482 1.15.521 2.044 1.463 3.028 2.25 3.336 2.703 7.991 3.687 12.142 2.576 1.269-.341 2.674-.848 3.831-.219z" class="k"/><path d="M41.135 288.599c.795-.978 2.334-1.011 3.477-.482 1.15.521 2.044 1.463 3.028 2.25 3.336 2.703 7.991 3.687 12.142 2.576 1.269-.341 2.674-.848 3.831-.219 1.121.62 1.467 2.046 1.704 3.306l.267 1.503c.582-.877.545-2.177.432-3.153-.208-1.804-1.153-3.545-2.661-4.595-1.246-.864-2.756-1.259-4.236-1.636l-8.31-2.119c-2.939-.745-5.927-1.504-8.955-1.37-.758 1.165-1.085 2.612-.717 3.939zm67.631 49.093c-.542-.251-.856-.819-1.239-1.281-1.243-1.498-3.364-1.994-5.311-1.855-1.941.132-3.8.796-5.706 1.211-1.899.415-3.968.567-5.727-.274-1.585-.755-2.703-2.204-3.765-3.609l-3.01-3.987c-.189-.248-.406-.509-.658-.672.779-.29 1.783-.3 2.385-.195 1.424.254 2.679 1.045 3.961 1.713a25.54 25.54 0 0 0 15.897 2.542l1.082-.197c.05.045.086.097.129.143 1.501 1.776 2.382 4.175 1.962 6.462zM92.27 282.591c-.929-.665-3.648-.901-4.349.003-.933.21-1.851.555-2.735.925-1.554.669-3.068 1.451-4.516 2.332a36.08 36.08 0 0 0-7.012 5.578c-.148.15-.321.362-.506.595.52-2.068 1.349-4.058 2.471-5.878 1.48-2.395 3.418-4.461 5.493-6.37l3.31-2.84c.76-.812.943-2.158 2.328-2.133.706.005 1.383.371 1.935.825 1.784 1.464 4.023 4.696 3.581 6.963z" class="o"/><path d="M60.437 352.843c.13 1.18.32 2.35.58 3.5.59 2.74 1.53 5.37 2.96 7.75.41.71 1.29 1.15 2.25 1.15h14.89c1.15 0 2.15-.64 2.43-1.56 1.17-3.88 3.4-14.32 1.82-24.15-.08-.52-.39-.95-.82-1.21a1.85 1.85 0 0 0-.96-.27h-21.05a1.8 1.8 0 0 0-1.78 1.56c-.56 3.99-.85 8.64-.32 13.23zm216.032-1.629l.068 5.725.326 8.143c.286.133 8.313-.088 9.824-1.374.53-.453.733-2.176.767-4.222.054-2.827-.209-6.27-.34-7.828l-.08-.84-2.261.083-8.303.312z" class="p"/><path d="M276.469 351.214l.068 5.725c3.688-1.672 8.226-.305 10.916 2.548.054-2.827-.209-6.27-.34-7.828l-2.341-.757-8.303.312z" class="g"/><path d="M259.144 373.699c.631.087 26.92-.787 27.987-1.194s.863-2.298.863-2.298l-29.083 1.254c0 0-.395 2.151.232 2.238z" class="e"/><path d="M258.913 371.463c.446.412 29.081-1.256 29.081-1.256 2.138-3.056.297-7.95-.325-9.112-.102-.192-.17-.28-.186-.249-1.275 2.83-9.44 4.364-9.632 3.48s-1.018-4.19-2.039-3.835-10.458 6.43-13.583 7.669c-1.47.581-2.389 1.256-2.902 1.849-.582.67-.65 1.236-.415 1.454z" class="f"/><path d="M258.913 371.463c.446.412 29.081-1.256 29.081-1.256 2.138-3.056.297-7.95-.325-9.112.164 1.963-.817 3.938-2.348 5.32-1.612 1.457-3.775 2.309-5.978 2.747s-4.474.492-6.73.544l-13.286.303c-.582.67-.65 1.236-.415 1.454z" class="l"/><path d="M379.742 356.685l5.518 1.08 7.891 1.332c.181-.228 1.447-7.411.489-9.011-.338-.562-1.957-1.085-3.918-1.523-2.708-.612-6.068-1.064-7.59-1.257l-.822-.096-.337 2.027-1.23 7.447z" class="p"/><path d="M379.742 356.685l5.518 1.08c-.928-3.614 1.223-7.376 4.462-9.201-2.708-.612-6.068-1.064-7.59-1.257l-1.159 1.931-1.23 7.447z" class="g"/><path d="M400.131 350.222c-1.199-1.185-2.956-1.657-4.6-1.806-1.853-.159-3.571.111-4.225.278-.197.052-.294.094-.267.115 2.484 1.695 2.453 9.265 1.57 9.259-.887-.011-4.219.074-4.069 1.05.076.483 1.115 3.07 2.221 5.921l.914 2.528c.251 1.081-.131 1.641-1.419 3.367 1.061 1.134 2.316 2.13 3.624 3.014l2.233-1.79.005-.004.216-4.806c1.762-7.527 4.087-17.029 3.798-17.128z" class="f"/><path d="M400.131 350.222c.289.1-2.036 9.602-3.798 17.128l-.216 4.806-.005.005-4.705 3.715c-.33.238-.802.13-1.256-.189-1.292-.907-1.458-2.778-.462-4.003a13.61 13.61 0 0 0 .346-.451c1.475-1.977 1.906-2.521 1.64-3.664.303-.455.592-.925.863-1.405 3.01-5.328 4.079-11.722 2.993-17.748 1.645.148 3.401.62 4.6 1.806z" class="l"/><path d="M402.18 351.447c.171.895-3.662 16.057-4.571 21.004a4.19 4.19 0 0 1-1.152 2.204c-1.767 1.777-2.872 2.396-3.365 2.704-.75.471-2.107-1.364-2.107-1.364l3.902-3.526c.892-.836.543-.66.735-1.867l4.506-20.381c0 0 1.856.192 2.051 1.227z" class="e"/><g class="l"><path d="M302.701 272.167s-42.437 8.765-45.47 18.52c-3.017 9.771 18.872 63.99 18.872 63.99h12.788c-2.654-19.934-5.578-38.508-9.067-54.219l41.397-5.045s.374-13.255 6.267-23.246h-24.787z"/><path d="M385.332 345.947l-1.007 9.877-.05.405-.339 2.733-72.373-15.707c-2.882-1.371 6.433-52.133 6.433-52.133s1.99-13.114 9.059-22.305l4.352.537.438.05 15.723 1.941c7.052 17.168-16.021 56.782-16.021 56.782 4.881-1.107 53.785 17.821 53.785 17.821z"/></g><path d="M316.642 338.349c-1.974-1.032 4.013-31.43 8.531-51.621.025-.107 1.8-9.216 6.673-17.325l-.438-.05c-4.847 8.134-6.623 17.185-6.639 17.292-1.156 5.17-11.206 50.564-8.316 52.067 2.453 1.305 53.042 13.865 67.823 17.515l.05-.405-67.683-17.474z" fill="#1f2123"/><path d="M257.784 234.522l.263.085 6.273 2.277c.374.129.737.297 1.142.475l3.223-6.545-.887-.301-5.207-1.471c-.249-.074-.545-.019-.794-.105-1.424-.433-2.647-1.129-3.641-2.115.514 2.546.381 5.193-.371 7.7z" class="g"/><path d="M259.853 236.697s33.455 19.216 36.612 16.529c1.262-1.08 2.838-4.387 4.26-7.96l2.125-5.739 1.826-5.542-.194 1.902c-.763 7.468-3.39 34.267-2.104 36.345 1.492 2.419 45.478 4.806 45.948 2.557.253-1.229-.559-5.984-1.192-11.212-.541-4.35-.956-9.025-.529-12.272.947-7.148 4.423-25.577 4.423-25.577s19.2 9.883 18.092 11.616c-1.1 1.733-15.401 17.311-14.437 18.366.965 1.062 6.405 6.73 8.629 6.043 2.217-.68 24.946-18.696 23.796-28.228-1.151-9.538-37.333-29.018-37.333-29.018s-27.296-6.221-43.042 2.485c0 0-11.767 9.863-17.05 30.35 0 0-28.235-11.376-29.215-10.071-.973 1.312-.615 9.426-.615 9.426z" fill="#5ac8fa"/><g fill="#30bdef"><path d="M302.379 272.231c1.492 2.419 45.478 4.806 45.948 2.557.253-1.229-.559-5.984-1.192-11.212a18.53 18.53 0 0 1-1.592.513c-3.716 1.015-7.658.966-11.444.288a35.35 35.35 0 0 1-19.413-10.581c-5.119-5.479-8.402-12.638-9.226-20.091l-.978 2.181c-.763 7.468-3.39 34.267-2.104 36.345z"/><path d="M302.377 272.488c-.086 0-.171-.043-.22-.123-1.303-2.11 1.17-27.665 2.009-35.92-1.54 4.722-5.062 14.875-7.534 16.979-.107.093-.271.08-.363-.029s-.08-.271.029-.364c3.062-2.608 8.086-18.975 8.137-19.14.039-.127.164-.206.299-.177a.26.26 0 0 1 .205.28c-1.054 9.945-3.529 36.177-2.342 38.1.075.122.037.281-.084.355-.042.026-.089.039-.136.039zm44.231-20.923c-.011 0-.022 0-.033-.002a.26.26 0 0 1-.223-.29c.931-7.077 4.391-25.412 4.426-25.596a.26.26 0 0 1 .141-.184c.074-.036.159-.035.231.002 1.801.927 17.609 9.128 18.25 11.496a.59.59 0 0 1-.06.491c-.077.121-.237.155-.356.079s-.156-.236-.079-.356c.012-.018.002-.062-.003-.079-.434-1.603-10.693-7.399-17.681-11.013l-4.357 25.227c-.017.13-.128.225-.256.225z"/></g><path d="M321.484 198.352l-.08 3.247c-.058 4.129.429 6.181.575 7.403.46 3.861 12.958 5.487 12.954-6.512l-1.086-7.523s6.858-9.164 4.445-15.482-20.941-13.272-24.162-8.384l.065.335c-.093.291-6.325 27.702 7.29 26.915z" class="q"/><path d="M314.638 179.961c-.093-.003-.185-.04-.253-.109a.32.32 0 0 1 .026-.478 2.03 2.03 0 0 1 .416-.272 2.12 2.12 0 0 1 2.031.089 1.92 1.92 0 0 1 .362.288.32.32 0 0 1-.026.478c-.149.126-.381.118-.516-.02a1.21 1.21 0 0 0-.229-.182 1.34 1.34 0 0 0-1.283-.056c-.094.046-.183.104-.263.172s-.17.093-.264.089zm12.309 1.063c-.089-.026-.166-.084-.212-.167s-.103-.163-.169-.233c-.3-.322-.767-.463-1.218-.369a1.36 1.36 0 0 0-.303.102c-.18.086-.4.021-.491-.146s-.018-.37.162-.456a2.11 2.11 0 0 1 .477-.16c.714-.148 1.452.075 1.927.584a1.81 1.81 0 0 1 .266.367c.091.166.02.37-.161.456a.39.39 0 0 1-.28.022zm-6.648 7.795c-.384.043-.81.042-1.217-.058-.135-.033-.325-.123-.463-.364-.699-1.218.541-5.835.556-5.877.062-.18.27-.283.46-.23s.295.24.234.42c-.302.929-1.103 5.033-.569 5.399.927.226 2.061-.239 2.072-.244.188-.077.4-.002.477.169s-.01.372-.196.449c-.037.015-.621.255-1.353.337z" class="f"/><path d="M318.295 192.046c.112 1.476 1.274 2.652 2.755 2.691s2.735-1.075 2.965-2.541l-5.72-.149z" fill="#faad9b"/><path d="M325.78 183.224c-.071.459-.397.809-.729.774-.339-.036-.548-.441-.477-.9.072-.466.397-.809.736-.773.332.035.542.434.469.9zm-9.556-.733c.029.46-.216.859-.552.886-.342.027-.636-.33-.665-.789-.03-.466.216-.859.559-.887.335-.027.628.324.658.79z" class="f"/><path d="M321.404 201.6c4.674-2.115 5.443-5.894 5.443-5.894-2.19 1.755-5.363 2.647-5.363 2.647l-.08 3.247z" fill="#faad9b"/><g fill="#591d1d"><path d="M332.978 195.678c-.185.146 11.115-8.689 9.184-18.672 0 0-.764-3.63-2.954-4.104 0 0 2.846-4.428-3.47-7.093s-19.476-4.362-23.086.59c-4.015 5.507-1.703 8.418 8.975 8.759 2.673.302 7.554-1.141 7.554-1.141s-.887 3.389.287 4.674 2.861 1.392 3.023 3.188.28 3.999.28 3.999 1.428-5.378 3.773-4.418 3.939 4.731-1.101 6.747c0 0-.056 5.571-2.465 7.472z"/><path d="M333.294 166.263c-2.479-1.498-6.017-1.541-8.342.194.076-.83-.321-1.648-.904-2.277s-1.34-1.097-2.102-1.533c-2.017-1.157-4.19-2.175-6.547-2.481s-4.939.191-6.663 1.729c-1.77 1.578-2.385 4.067-1.899 6.282s1.956 4.161 3.784 5.651c1.324 1.079 2.931 1.975 4.701 2.048 2.901.12 5.513-1.959 8.418-1.916 3.281.048 6.108 2.792 9.364 2.377 2.084-.265 4.815-1.833 4.272-4.024-.588-2.372-1.831-4.69-4.081-6.05z"/></g><path d="M263.258 226.662c.62.016 1.09.544 1.053 1.155-.224 3.126-.606 9.582-1.756 9.954-.182.065-.446.071-.751.048-.947-.07-2.338-.435-3.151-.447-.376-.002-.561-.516-.508-.893.266-2.151 1.122-6.575 1.587-8.903.082-.429.147-.695.197-.736.239-.219 2.089-.21 3.33-.177z" class="i"/><path d="M263.258 226.662c.62.016 1.09.544 1.053 1.155-.224 3.126-.606 9.582-1.756 9.954-.182.065-.446.071-.751.048.513-3.356.252-4.126-.716-7.387-.298-1.02-.686-2.038-1.356-2.856.082-.429.147-.695.197-.736.239-.219 2.089-.21 3.33-.177z" class="e"/><use xlink:href="#B" class="p"/><use xlink:href="#C" class="g"/><use xlink:href="#D" class="e"/><use xlink:href="#E" class="f"/><use xlink:href="#F" class="l"/><use xlink:href="#B" x="40.858" class="p"/><use xlink:href="#C" x="40.858" class="g"/><use xlink:href="#D" x="40.858" class="e"/><use xlink:href="#E" x="40.858" class="f"/><use xlink:href="#F" x="40.858" class="l"/><path d="M156.537 348.571c.057 1.205-11.465 1.754-11.523.548 0 0-9.207-30.304-9.6-51.801-.013-.955-.206-1.897-.536-2.787l-16.808-36.434 1.631 41.347c0 .658.077 1.316.219 1.961.484 11.427-3.571 47.03-3.571 47.03.22 2.598-13.206 3.624-13.426 1.026l-1.674-49.398-.187-1.052v-.006c-1.684-15.349-8.965-33.965-9.249-57.372l-.006-1.077c-.006-.052-.006-.103-.006-.161l-.013-1.168-.019-2.271-.013-.968.052.013c-.006-.277-.006-.568.006-.865.013-.348.039-.716.077-1.097.639-6.949 4.716-18.742 4.716-18.742l41.33 8.671s.4 3.826.226 8.245v.006l1.49 5.045.336 1.161c4.123 14 10.142 42.794 13.149 54.975l.239 1.632 3.161 53.536z" class="f"/><path d="M78.812 231.312l1.595-.431 5.764-1.45c.384-.099.568-.034.691.37l1.306 4.085 1.226 3.847c.173.483.524.908.824 1.339l1.748 2.45.35.477 1.691 2.578c.026.04.035.094.044.143.239 1.274 1.044 2.258 1.672 3.339.433.745.821 1.497 1.41 2.148.389.429.093.99-.489.966-.432-.018-.884-.117-1.281-.287-1.072-.46-1.688-1.386-2.239-2.356l-.863-1.567c-.093-.15-.328-.212-.587-.367.056.515.145.873.125 1.225-.062 1.14-.116 2.271-.443 3.394-.42 1.444-.547 2.946-.53 4.462l-.143 3.696c-.036.442-.226.911-.474 1.282-.15.223-.568.409-.828.368-.209-.032-.426-.406-.522-.671-.134-.368-.133-.784-.244-1.163-.036-.123-.231-.266-.367-.281-1.188-.132-1.578-.464-1.86-1.62-.045-.185-.068-.331-.363-.358-.362-.033-.737-.197-1.051-.392-.227-.14-.364-.425-.543-.644l-.76-.909c-.212-.218-.484-.376-.713-.579-.221-.195-.511-.375-.615-.627-.345-.833-.782-1.626-.838-2.578-.049-.839-.312-1.664-.446-2.5-.088-.552-.138-1.112-.164-1.67l-.096-3.108c-.054-1.228.119-2.425.376-3.623.112-.521.148-1.085.082-1.612-.249-1.994-.938-3.858-1.769-5.677l-.678-1.696z" class="q"/><path d="M91.575 235.534c.008-.007.025-.014.032-.013-.008.007-.016.006-.024.014l-.008-.001z" fill="#6ed9ff"/><path d="M211.437 152.711l-34.135 24.313-30.772 5.211c-3.996 1.121-6.803 4.706-6.942 8.854l-.788 20.318.097 3.143.065 3.36.011 2.333c.011 4.872-.14 10.111-.832 10.996-1.361 1.718-26.789 8.458-43.986-3.64 0 0 .594-29.069.097-30.44-.205-.573-.508-1.772-.853-2.928-.464-1.599-1.015-3.111-1.469-2.722a.25.25 0 0 0-.076.076c-.907.95-4.029 6.935-4.353 9.506-.054.389.054 1.394.27 2.83l2.873 18.029c1.059 7 1.869 13.103 1.361 13.34-.335.162-.454.227-.475.248-.518.227-1.339.465-2.312.691-3.446.789-8.782 1.447-9.419.616-.864-1.166-5.768-36.532-6.33-37.764-.172-9.087 6.369-22.971 12.247-31.525a20.85 20.85 0 0 1 9.298-7.507c28.03-11.94 50.566 4.228 55.721 3.626l20.267-2.369 31.978-17.496 8.458 8.901z" fill="#fe6b4d"/><path d="M138.977 220.242c.006 4.871-.142 10.116-.839 11-1.361 1.71-26.788 8.452-43.981-3.639 0 0 .587-29.071.097-30.446-.206-.574-.51-1.774-.852-2.923l.29-2.91 6.794 8.645c4.71 6.007 9.613 12.168 16.31 15.826a28.6 28.6 0 0 0 21.555 2.297 21.77 21.77 0 0 0 .606-.187l.019 2.336z" fill="#f4573d"/><path d="M125.195 151.966l-.273 3.276c-.388 4.161-1.062 6.182-1.329 7.4-.843 3.845-12.668 4.347-11.379-7.729l1.818-7.474c-.187.084-5.894-9.63-2.486-15.986 3.213-5.994 20.944-11.459 23.424-6.248l-.096.331c.055.301 2.93 28.457-9.678 26.43z" class="p"/><path d="M127.398 142.104c.284.053.603.074.916.013.104-.02.253-.083.375-.269.619-.942.052-4.706.044-4.741-.033-.147-.18-.24-.326-.207s-.24.178-.208.325c.153.76.431 4.091.003 4.358-.712.136-1.524-.294-1.532-.298-.134-.071-.299-.021-.37.112s-.022.299.111.37a3.75 3.75 0 0 0 .987.337z" class="f"/><path d="M129.669 144.682c-.263 1.475-1.472 2.554-2.857 2.458s-2.434-1.33-2.492-2.827l5.349.369z" class="g"/><path d="M123.065 136.084c.084.458.403.789.713.732.317-.058.496-.481.412-.94-.086-.465-.403-.789-.72-.731-.31.057-.491.473-.405.938zm8.8-.012c-.026.465.205.862.52.88.321.018.596-.35.623-.815.027-.472-.205-.862-.526-.881-.315-.018-.589.344-.616.816z" class="f"/><path d="M124.922 155.242c-4.131-2.553-4.443-6.427-4.443-6.427 1.854 1.965 4.716 3.151 4.716 3.151l-.273 3.276z" class="g"/><path d="M113.894 148.425c.1.204-8.56-9.948-5.691-19.82 0 0 .333-1.084.981-2.106.924-1.458 1.556-3.06 1.966-4.736.332-1.359 1.406-2.876 4.24-3.845 6.173-2.11 18.624-2.624 21.46 2.688 3.154 5.908.686 8.628-9.305 8.002-.626.015-1.368-.09-2.129-.257-2.126-.466-4.172.715-5.209 2.629-.098.181-.214.341-.351.473-1.232 1.187-2.816 1.141-3.16 2.934s-.689 3.999-.689 3.999-.755-5.543-3.045-4.789-4.179 4.405.304 6.891c.399-.196 1.357 4.606.626 7.938z" fill="#1f2123"/><path d="M93.045 232.581c-.022-.667-.594-1.169-1.251-1.124-3.362.265-13.202.791-13.593 2.032-.069.196-.073.48-.045.809.083 1.019.486 2.512.505 3.387.005.405.559.599.965.54 2.312-.303 9.962-1.323 12.463-1.842.461-.092.746-.164.791-.217.234-.259.21-2.25.165-3.585z" class="i"/><path d="M93.045 232.581c-.022-.667-.594-1.169-1.251-1.124-3.362.265-13.202.791-13.593 2.032-.069.196-.073.48-.045.809 3.607-.579 7.333-.368 10.85.649 1.1.312 2.198.723 3.084 1.437.461-.092.746-.164.791-.217.234-.259.21-2.25.165-3.585z" class="e"/><path d="M125.244 133.324c-.092.147-.512-.041-1.332-.13a3.05 3.05 0 0 0-2.014.34c-.744.352-1.08.667-1.218.556-.116-.074.013-.62.864-1.197a3.79 3.79 0 0 1 2.493-.421c.994.265 1.294.74 1.207.851zm8.867-.556c-.091.144-.45.012-1.114-.047-.557-.099-1.136-.001-1.63.275-.608.273-.904.515-1.04.407-.117-.077-.028-.55.686-1.047a3.2 3.2 0 0 1 2.108-.356c.839.236 1.078.653.99.768z" class="f"/><g fill="#f3f6fd"><path d="M126.99 155.544l-1.688.171c-.283.041-.538.283-.614.586-.209.832-.693 2.644-1.961 4.278-1.475 2.248-4.375 4.172-4.342 4.022 1.078 1.074 2.469 1.937 4.12 2.477 3.465-3.502 5.072-7.719 5.02-11.015-.306.022-.54-.194-.536-.519z"/><path d="M119.352 165.039c-1.24 1.214-2.827 2.178-4.715 2.778-3.777-3.885-5.574-8.514-5.616-12.211-.003-.261.109-.509.298-.689h0a.95.95 0 0 1 .751-.259c.498.049 1.078.104 1.493.168.321.05.609.328.696.675.227.952.765 3.021 2.193 4.901 1.59 2.472 4.682 4.619 4.9 4.637z"/></g><path d="M207.863 152.846l-1.001-1.315-3.517-4.792c-.237-.318-.246-.513.082-.779l3.29-2.751 3.1-2.587c.382-.343.643-.828.93-1.268l1.609-2.543.31-.504 1.749-2.538c.027-.039.074-.068.115-.095 1.09-.702 1.697-1.818 2.462-2.808.527-.682 1.077-1.325 1.457-2.116.251-.522.882-.46 1.079.088.146.407.225.863.217 1.295-.022 1.166-.647 2.086-1.337 2.962l-1.126 1.39c-.104.143-.072.384-.119.682.455-.246.754-.463 1.087-.578 1.08-.372 2.147-.749 3.31-.87 1.495-.155 2.935-.605 4.332-1.192 1.136-.477 2.301-.892 3.477-1.262a2.82 2.82 0 0 1 1.366-.044c.263.054.593.372.653.628.049.206-.216.548-.425.737-.291.263-.675.419-.985.665-.1.079-.159.315-.122.446.325 1.15.166 1.636-.799 2.334-.154.112-.281.188-.195.471.106.348.095.756.034 1.122-.045.263-.257.497-.392.746l-.555 1.047c-.122.279-.166.59-.267.879-.097.278-.155.615-.348.806-.641.634-1.211 1.338-2.072 1.749-.758.362-1.423.917-2.147 1.356-.478.29-.978.547-1.485.781l-2.843 1.261c-1.117.513-2.291.804-3.497 1.018-.525.093-1.061.272-1.524.532-1.752.983-3.219 2.324-4.59 3.78l-1.315 1.268z" class="q"/><path d="M201.607 142.827c-.559.365-.691 1.114-.312 1.653 1.97 2.737 7.524 10.877 8.787 10.568.203-.043.448-.187.715-.381.828-.599 1.896-1.719 2.634-2.189.344-.214.222-.789-.039-1.105-1.459-1.82-6.298-7.831-8.039-9.701-.317-.346-.527-.553-.596-.563-.343-.065-2.032.988-3.15 1.719z" class="i"/><path d="M201.607 142.827c-.559.365-.691 1.114-.312 1.653 1.97 2.737 7.524 10.877 8.787 10.568.203-.043.448-.187.715-.381-2.366-2.784-4.118-6.079-5.073-9.613-.303-1.102-.522-2.254-.371-3.382-.317-.346-.527-.553-.596-.563-.343-.065-2.032.988-3.15 1.719z" class="e"/><circle cx="244.12" cy="127.299" r="27.756" class="m"/><g class="h r"><circle cx="244.12" cy="127.299" r="27.756"/></g><circle cx="244.12" cy="127.299" r="22.362" class="n"/><circle cx="244.12" cy="127.299" r="19.787" class="m"/><use xlink:href="#G" class="n"/><use xlink:href="#G" x="-0.834" y="-0.78" fill="#fff"/><path d="M215.206 137.886c.36-.988.934-1.917 1.613-2.595.115-.115.241-.222.366-.329.015-.198.022-.371.099-.477.35-.482.757-.922 1.126-1.39.69-.876 1.316-1.796 1.337-2.962.008-.432-.071-.888-.217-1.295-.197-.548-.828-.611-1.079-.088-.38.791-.93 1.434-1.457 2.116-.765.99-1.373 2.106-2.462 2.808-.042.027-.088.055-.115.095l-1.702 2.469 2.492 1.648z" class="q"/><path d="M223.801 232.368l1.451 8.432 46.742-7.411-1.34-8.449-46.854 7.429z" class="s"/><path d="M352.887 207.062l12.994 81.95a3.94 3.94 0 0 1-3.274 4.509l-101.105 16.031-11.537-72.764-16.113 2.555c-4.422.701-8.801-1.967-9.906-6.299-1.264-4.968 2.027-9.847 6.97-10.631l117.463-18.625a3.94 3.94 0 0 1 4.508 3.274z" fill="#2943e2"/><circle cx="260.213" cy="227.338" r="25.059" class="m"/><g class="h r"><path d="M285.271 227.338c0 2.876-.487 5.639-1.379 8.213a24.77 24.77 0 0 1-3.173 6.188 24.83 24.83 0 0 1-3.65 4.137l-.805.707-1.292 1.01a25.01 25.01 0 0 1-7.162 3.63 24.95 24.95 0 0 1-7.598 1.174 25.06 25.06 0 0 1-25.059-25.058c0-13.804 11.18-25.058 25.059-25.058a25.06 25.06 0 0 1 25.059 25.058z"/></g><circle cx="260.213" cy="227.338" r="20.188" class="n"/><circle cx="260.213" cy="227.338" r="17.864" class="m"/><use xlink:href="#H" class="n"/><use xlink:href="#H" x="-0.753" y="-0.705" fill="#fff"/><circle cx="311.947" cy="236.791" r="22.93" class="m"/><g class="h r"><path d="M334.876 236.791c0 2.632-.446 5.16-1.262 7.515-.704 2.031-1.684 3.936-2.904 5.662a22.72 22.72 0 0 1-3.34 3.786l-.737.647-1.182.924c-1.97 1.435-4.175 2.566-6.553 3.321a22.83 22.83 0 0 1-6.952 1.074 22.93 22.93 0 0 1-22.929-22.929 22.8 22.8 0 0 1 2.139-9.682c.342-.732.718-1.445 1.135-2.13a22.71 22.71 0 0 1 4.747-5.606 21.03 21.03 0 0 1 1.966-1.511l.122-.085c1.351-.91 2.801-1.684 4.334-2.294a22.88 22.88 0 0 1 8.486-1.623 22.93 22.93 0 0 1 22.929 22.929z"/></g><circle cx="311.947" cy="236.791" r="18.473" class="n"/><circle cx="311.947" cy="236.791" r="16.346" class="m"/><use xlink:href="#I" class="n"/><use xlink:href="#I" x="-0.691" y="-0.644" fill="#fff"/><path d="M345.395 225.687l12.22 77.071c.342 2.154-1.121 4.167-3.274 4.509l-105.674 16.755c-5.393.855-10.449-2.818-11.303-8.202l-11.908-75.105 115.431-18.302a3.94 3.94 0 0 1 4.508 3.274z" class="s"/><g class="e"><use xlink:href="#J"/><use xlink:href="#K"/><use xlink:href="#K" x="6.525" y="-1.034"/><use xlink:href="#J" x="19.574" y="-3.104"/><use xlink:href="#K" x="19.575" y="-3.103"/><use xlink:href="#J" x="32.624" y="-5.173"/><use xlink:href="#K" x="32.624" y="-5.173"/><use xlink:href="#J" x="45.673" y="-7.242"/><use xlink:href="#K" x="45.674" y="-7.242"/><use xlink:href="#J" x="58.723" y="-9.311"/><use xlink:href="#K" x="58.723" y="-9.311"/><use xlink:href="#J" x="71.772" y="-11.38"/><use xlink:href="#K" x="71.773" y="-11.38"/><use xlink:href="#J" x="84.822" y="-13.449"/><use xlink:href="#K" x="84.822" y="-13.449"/><use xlink:href="#J" x="97.871" y="-15.519"/><path d="M353.038 300.228c.234-.037.492.221.683.796l.292 1.839-.418.066-.741.022a1.25 1.25 0 0 1-.296-.084c-.162-.072-.253-.173-.272-.293s.036-.243.168-.36c.066-.059.151-.116.255-.171.093-.053.034-.077.031-.103l-.118-.742c.009-.606.169-.931.415-.97z"/><use xlink:href="#L"/><path d="M350.969 287.179c.234-.037.492.221.683.796l.238 1.5c-.004.605-.169.93-.409.968s-.492-.221-.688-.794l-.238-1.499c.009-.606.169-.931.415-.97z"/><use xlink:href="#L" x="-2.069" y="-13.05"/><use xlink:href="#M"/><use xlink:href="#N"/><use xlink:href="#M" x="-2.069" y="-13.049"/><use xlink:href="#N" x="-2.069" y="-13.05"/><use xlink:href="#M" x="-4.138" y="-26.099"/><use xlink:href="#N" x="-4.138" y="-26.1"/><use xlink:href="#M" x="-6.207" y="-39.149"/><use xlink:href="#N" x="-6.207" y="-39.149"/><use xlink:href="#O"/><use xlink:href="#P"/><use xlink:href="#O" x="-13.049" y="2.069"/><use xlink:href="#P" x="-13.05" y="2.069"/><use xlink:href="#O" x="-26.099" y="4.138"/><use xlink:href="#P" x="-26.1" y="4.139"/><use xlink:href="#O" x="-39.148" y="6.207"/><use xlink:href="#P" x="-39.149" y="6.208"/><use xlink:href="#O" x="-52.198" y="8.276"/><use xlink:href="#P" x="-52.199" y="8.277"/><use xlink:href="#O" x="-65.247" y="10.345"/><use xlink:href="#P" x="-65.248" y="10.346"/><use xlink:href="#O" x="-78.297" y="12.415"/><use xlink:href="#P" x="-78.298" y="12.415"/><use xlink:href="#O" x="-91.346" y="14.484"/><use xlink:href="#P" x="-91.347" y="14.484"/><path d="M231.683 243.12c.081-.226.423-.322.999-.262a12.72 12.72 0 0 0 1.422.309c.549.185.82.415.799.659s-.34.431-.973.439a13.69 13.69 0 0 1-1.545-.336c-.573-.27-.784-.576-.702-.808zm-3.379-1.76c.146-.202.304-.343.435-.374l.188.13c.018.132-.063.337-.197.539s-.288.349-.427.38l-.204-.141c-.022-.139.066-.341.205-.533z"/></g><path d="M359.071 246.046l2.767 17.451-18.965 3.007a8.85 8.85 0 0 1-10.117-7.348c-.381-2.402.259-4.738 1.577-6.569 1.332-1.834 3.357-3.151 5.773-3.534l18.965-3.007z" fill="#2943e2"/><path d="M348.953 247.65l10.118-1.604 2.767 17.451-10.118 1.604z" fill="#1939d1"/><circle cx="340.789" cy="257.89" r="4.148" fill="#fff"/><circle cx="340.789" cy="257.89" r="3.301" class="l"/><path d="M347.396 274.986c.26-.09.415-.192.439-.307.147-.714-.094-2.712-.439-5.297v5.605zm16.015-30.58c-4.184 4.849-10.308 11.936-9.691 12.611.893.983 5.93 6.23 7.988 5.594 1.527-.468 13.554-9.815 19.181-18.205h-17.478z" fill="#5ac8fa"/><path d="M360.816 257.953l-2.841-2.959-1.253.88c-1.036.681-2.161 1.224-3.234 1.85-.534.311-1.097.46-1.709.491l-1.961.155c-1.1.16-2.236.159-3.264.679-.975.493-2.186.449-2.989 1.36-.234.266-.635.38-.942.589-.162.111-.403.281-.398.418.005.175.185.412.354.502.641.34 1.341.509 2.01.13.552-.313 1.104-.574 1.74-.627.214-.018.43-.005.651-.006l-1.367 2.518-1.181 2.185c-.175.332-.261.733-.497 1.008-.536.623-1.137 1.191-1.721 1.772-.075.075-.21.089-.317.133-.607.25-1.112.611-1.331 1.263-.168.498.097.813.618.765.15-.014.322-.041.451.014.747.318 1.511.496 2.292.186.372-.148.6-.036.799.24s.464.348.784.288c.269-.051.537-.121.809-.135.365-.019.819-.127 1.084.041.74.47 1.592.286 2.155-.118.675-.485 1.29-1.053 1.92-1.599l1.864-1.668c.62-.576 1.283-1.122 1.816-1.771.594-.723 1.047-1.559 1.59-2.325.789-1.113 1.765-2.051 2.974-2.675l2.918-1.442-1.823-2.142z" fill="#fcb3b3"/><path d="M355.247 253.695c.417-.495 1.154-.534 1.627-.106 2.402 2.218 7.416 6.735 6.97 7.915-.065.19-.232.409-.451.643-.674.726-1.877 1.622-2.416 2.277-.246.306-.786.121-1.059-.167-1.58-1.618-4.629-5.197-6.223-7.092-.296-.346-.47-.572-.472-.64-.023-.338 1.19-1.84 2.025-2.83z" class="i"/><path d="M355.247 253.695c.417-.495 1.154-.534 1.627-.106 2.402 2.218 7.416 6.735 6.97 7.915-.065.19-.232.409-.451.643-2.401-2.604-3.199-2.893-6.488-4.228-1.025-.422-2.108-.768-3.211-.755-.296-.346-.47-.572-.472-.64-.023-.338 1.19-1.84 2.025-2.83z" class="e"/><path d="M61.017 356.343c.59 2.74 1.53 5.37 2.96 7.75.41.71 1.29 1.15 2.25 1.15h14.89c1.15 0 2.15-.64 2.43-1.56 1.17-3.88 3.4-14.32 1.82-24.15-.08-.52-.39-.95-.82-1.21-.1 7.43-5.29 14.4-12.22 17.07-3.59 1.39-7.53 1.65-11.31.95z" class="g"/><g class="i"><use xlink:href="#Q"/><use xlink:href="#R"/><use xlink:href="#R" x="9.71"/><use xlink:href="#S"/><use xlink:href="#T"/><use xlink:href="#T" x="9.71"/><use xlink:href="#S" y="-8.572"/><use xlink:href="#S" y="-25.698"/><use xlink:href="#S" y="-42.842"/><use xlink:href="#S" y="-34.27"/><use xlink:href="#U"/><use xlink:href="#Q" y="8.555"/><use xlink:href="#T" x="9.71" y="-34.254"/><use xlink:href="#T" x="9.71" y="-17.127"/><use xlink:href="#T" y="-51.398"/><use xlink:href="#T" x="9.71" y="-25.699"/><use xlink:href="#S" y="-17.144"/><use xlink:href="#Q" y="-8.572"/><use xlink:href="#Q" y="-17.144"/><use xlink:href="#T" y="-8.555"/><use xlink:href="#T" x="9.71" y="-8.555"/><use xlink:href="#T" y="-42.826"/><use xlink:href="#T" y="-34.254"/><use xlink:href="#T" y="-25.699"/><use xlink:href="#T" y="-17.127"/><use xlink:href="#U" x="9.71" y="25.699"/><use xlink:href="#Q" y="17.127"/><use xlink:href="#S" y="8.555"/><use xlink:href="#U" x="19.421" y="17.127"/><use xlink:href="#U" y="17.127"/><use xlink:href="#U" y="25.699"/><use xlink:href="#T" x="9.71" y="8.572"/><use xlink:href="#U" x="19.421" y="25.699"/><path d="M355.729 135.554c1.225 0 2.19.983 2.19 2.19a2.18 2.18 0 0 1-2.19 2.173 2.19 2.19 0 0 1-2.174-2.173c0-1.207.984-2.19 2.174-2.19z"/><use xlink:href="#U" x="9.71" y="17.127"/><use xlink:href="#T" y="8.572"/></g><use xlink:href="#V" class="j"/><g class="h s"><use xlink:href="#V" x="253.439" y="83.037"/></g><g class="h"><path d="M169.875 319.789c.154-.041.317-.047.479-.014.393.079.707.375.81.762l2.626 9.881c.103.387-.023.8-.324 1.064s-.727.334-1.097.18l-7.78-3.223c-.303-.126-.531-.386-.615-.703s-.016-.656.185-.916l5.154-6.658c.144-.186.343-.315.563-.373zm1.331 9.11l-1.531-5.762-3.005 3.883 4.537 1.879z" fill="#ff8261"/></g><circle cx="159.113" cy="102.936" r="15.108" class="j"/><path d="M163.098 122.371c-8.509 0-15.432-6.922-15.432-15.431s6.923-15.431 15.432-15.431 15.431 6.922 15.431 15.431-6.922 15.431-15.431 15.431zm0-30.216c-8.152 0-14.785 6.632-14.785 14.785s6.633 14.785 14.785 14.785 14.784-6.632 14.784-14.785-6.632-14.785-14.784-14.785z" class="e"/><path d="M395.623 323.261h-28.646c-1.136 0-2.057-.921-2.057-2.057v-20.265c0-1.136.921-2.057 2.057-2.057h28.646c1.136 0 2.057.921 2.057 2.057v20.265c0 1.136-.921 2.057-2.057 2.057z" class="i"/><path d="M406.455 331.386h-26.84c-1.438 0-2.609-1.171-2.609-2.61v-17.62a2.61 2.61 0 0 1 2.609-2.6h26.84a2.61 2.61 0 0 1 2.61 2.6v17.62c0 1.439-1.171 2.61-2.61 2.61zm-26.84-22.33c-1.163 0-2.109.942-2.109 2.1v17.62c0 1.164.946 2.11 2.109 2.11h26.84c1.164 0 2.11-.947 2.11-2.11v-17.62c0-1.158-.946-2.1-2.11-2.1h-26.84z" class="e"/><g class="i"><path d="M199.073 308.825H166.06c-.296 0-.535-.24-.535-.536v-9.204c0-.296.239-.536.535-.536h33.014c.296 0 .535.24.535.536v9.204c0 .296-.239.536-.535.536zm-32.479-1.071h31.943v-8.133h-31.943v8.133z"/><use xlink:href="#W"/><use xlink:href="#W" x="-16.507" y="9.204"/><use xlink:href="#W" x="-16.507" y="-9.204"/><path d="M182.567 318.029h-4.017c-.296 0-.535-.24-.535-.536s.239-.536.535-.536h4.017c.296 0 .535.24.535.536s-.239.536-.535.536zm39.943-27.612h-6.931c-.296 0-.535-.24-.535-.536s.239-.536.535-.536h6.931c.296 0 .535.24.535.536s-.239.536-.535.536zm-54.598 9.204h-6.614c-.296 0-.535-.24-.535-.536s.239-.536.535-.536h6.614c.296 0 .535.24.535.536s-.239.536-.535.536z"/></g><path d="M197.109 197.361c2.006-2.279 5.493-2.501 7.772-.495s2.502 5.493.495 7.772-5.493 2.502-7.772.495-2.501-5.493-.495-7.772zm6.427 5.657a3.06 3.06 0 0 0-.275-4.312 3.06 3.06 0 0 0-4.312.275 3.06 3.06 0 0 0 .275 4.312 3.06 3.06 0 0 0 4.312-.275z" class="j"/><circle cx="163.098" cy="106.937" r="10.254" fill="#3fc4bd"/><path d="M173.348 106.936c0 5.66-4.59 10.26-10.25 10.26a10.25 10.25 0 0 1-9.92-7.68 10.21 10.21 0 0 0 7.61 3.39c5.66 0 10.25-4.59 10.25-10.26a10.32 10.32 0 0 0-.32-2.56 10.24 10.24 0 0 1 2.63 6.85z" class="k"/><path d="M166.129 105.438c-.842.791-1.637 1.637-2.389 2.518l-1.077 1.363-.521.721-.509.729-.423.623-.125.18-.063.09-.031.047-.016.02c-.008 0-.016-.008-.02-.016l-.744-.697-1.046-.995-.161-.164-.114-.121-.568-.678a9.1 9.1 0 0 1-.756-1.124c-.352-.638-.255-1.281-.117-1.383s.47.078 1.01.517l.983.83 1.343 1.195.043.035.02.004c.023-.016.027-.027.027-.039h-.004l.525-.721 1.136-1.433a31.53 31.53 0 0 1 2.514-2.651c1.104-.928 2.017-1.512 2.667-1.829s1.026-.38 1.128-.239c.208.294-.799 1.265-2.714 3.219z" fill="#fff"/><defs ><path id="B" d="M113.551 347.408l.418 4.703.397 6.691c-.235.111-7.158-.038-8.564-1.088-.494-.37-.812-1.784-1.01-3.465-.282-2.322-.342-5.152-.358-6.432l-.001-.69 1.952.059 7.168.222z"/><path id="C" d="M113.551 347.408l.418 4.703c-3.312-1.358-7.101-.216-9.178 2.138-.282-2.322-.342-5.152-.358-6.432l1.951-.632 7.168.222z"/><path id="D" d="M127.736 365.54c-.508.07-21.665-.634-22.524-.961s-.695-1.849-.695-1.849l23.406 1.009c0 0 .318 1.731-.187 1.801z"/><path id="E" d="M127.922 363.74c-.359.332-23.404-1.011-23.404-1.011-1.721-2.46-.239-6.398.261-7.333.082-.154.137-.226.149-.2 1.026 2.278 7.597 3.512 7.752 2.801s.819-3.372 1.641-3.086 8.417 5.175 10.932 6.172c1.183.467 1.922 1.011 2.336 1.488.468.539.523.995.334 1.17z"/><path id="F" d="M127.922 363.74c-.359.332-23.404-1.011-23.404-1.011-1.721-2.46-.239-6.398.261-7.333-.132 1.58.657 3.169 1.89 4.281 1.297 1.172 3.038 1.859 4.811 2.211s3.601.396 5.416.438l10.692.244c.468.539.523.995.334 1.17z"/><path id="G" d="M252.47 135.22c-.545.822-1.318 1.476-2.321 1.963s-2.164.769-3.482.845v2.035c0 .248-.082.454-.244.616s-.377.243-.645.243c-.248 0-.454-.076-.616-.229s-.243-.363-.243-.63v-2.035c-2.063-.134-3.994-.583-5.79-1.347a1.31 1.31 0 0 1-.573-.473 1.21 1.21 0 0 1-.229-.702c0-.325.109-.606.329-.845s.502-.358.846-.358c.19 0 .372.039.545.115 1.547.688 3.171 1.07 4.872 1.146v-6.592c-1.3-.344-2.394-.717-3.282-1.118a5.95 5.95 0 0 1-2.221-1.706c-.593-.735-.889-1.667-.889-2.794a5.39 5.39 0 0 1 .731-2.751c.486-.841 1.213-1.538 2.178-2.092s2.125-.888 3.482-1.003v-2.006c0-.248.081-.458.243-.63a.81.81 0 0 1 .616-.258.86.86 0 0 1 .631.258c.172.172.258.382.258.63v1.978c1.872.077 3.534.392 4.986.946.535.191.803.573.803 1.146 0 .306-.105.583-.315.831s-.487.373-.831.373c-.114 0-.268-.038-.458-.115-1.3-.458-2.694-.716-4.185-.774v6.821c1.375.325 2.517.678 3.425 1.061a5.77 5.77 0 0 1 2.278 1.705c.611.755.917 1.753.917 2.995 0 1.013-.272 1.93-.816 2.751zm-10.375-10.117c.64.458 1.581.85 2.823 1.175v-6.305c-1.146.153-2.063.501-2.752 1.046a2.59 2.59 0 0 0-1.031 2.135c0 .841.319 1.49.96 1.949zm8.612 7.193c0-.745-.34-1.323-1.018-1.734s-1.687-.797-3.023-1.161v6.162c2.693-.191 4.041-1.28 4.041-3.268z"/><path id="H" d="M267.753 234.489c-.492.742-1.19 1.333-2.096 1.772s-1.954.694-3.145.763v1.837c0 .224-.073.41-.22.557s-.341.22-.582.22a.78.78 0 0 1-.557-.207c-.146-.138-.22-.328-.22-.569v-1.837c-1.862-.121-3.605-.526-5.227-1.216-.207-.086-.38-.228-.518-.427s-.207-.41-.207-.634a1.09 1.09 0 0 1 .298-.763.99.99 0 0 1 .764-.324 1.2 1.2 0 0 1 .491.104c1.397.621 2.863.966 4.398 1.035v-5.951c-1.173-.311-2.16-.647-2.963-1.009s-1.471-.875-2.005-1.54-.802-1.504-.802-2.522a4.87 4.87 0 0 1 .659-2.484c.44-.759 1.096-1.389 1.967-1.889s1.919-.802 3.144-.905v-1.812a.8.8 0 0 1 .22-.569.73.73 0 0 1 .557-.233c.224 0 .414.078.569.233s.232.346.232.569v1.786c1.69.069 3.191.354 4.503.854.482.173.724.518.724 1.035 0 .276-.095.526-.284.75s-.439.336-.75.336c-.104 0-.242-.034-.414-.103-1.174-.414-2.433-.647-3.778-.699v6.158c1.242.293 2.272.612 3.093.957a5.22 5.22 0 0 1 2.057 1.54c.552.682.828 1.583.828 2.704a4.4 4.4 0 0 1-.737 2.484zm-9.367-9.134c.578.414 1.428.768 2.549 1.061v-5.692c-1.035.138-1.862.453-2.483.944a2.34 2.34 0 0 0-.932 1.928c0 .759.288 1.345.866 1.759zm7.775 6.495c0-.673-.307-1.194-.918-1.565s-1.522-.72-2.73-1.048v5.563c2.433-.172 3.648-1.156 3.648-2.95z"/><path id="I" d="M318.847 243.334c-.45.679-1.089 1.219-1.918 1.622s-1.787.635-2.877.698v1.681c0 .205-.066.375-.201.509a.72.72 0 0 1-.532.201c-.205 0-.375-.063-.509-.189s-.201-.3-.201-.521v-1.681c-1.705-.11-3.3-.481-4.783-1.113-.189-.079-.347-.209-.474-.391s-.189-.375-.189-.58c0-.268.091-.5.272-.698s.415-.296.698-.296c.158 0 .309.032.45.095a11.03 11.03 0 0 0 4.025.947v-5.445c-1.074-.284-1.978-.592-2.711-.923a4.91 4.91 0 0 1-1.835-1.409c-.489-.607-.734-1.377-.734-2.309 0-.82.201-1.578.604-2.272s1.003-1.271 1.8-1.729 1.756-.734 2.877-.829v-1.657c0-.205.066-.379.201-.521a.67.67 0 0 1 .509-.213c.205 0 .379.071.521.213s.213.316.213.521v1.633c1.547.063 2.92.324 4.12.781a.92.92 0 0 1 .663.947c0 .252-.087.481-.261.687s-.402.308-.687.308c-.095 0-.221-.031-.379-.094-1.073-.379-2.226-.592-3.457-.64v5.635c1.137.269 2.08.56 2.83.876s1.377.785 1.882 1.409.758 1.448.758 2.474a4.02 4.02 0 0 1-.675 2.273zm-8.57-8.358c.528.379 1.306.703 2.332.971v-5.208c-.947.126-1.705.414-2.273.864a2.14 2.14 0 0 0-.853 1.764c0 .695.265 1.231.794 1.61zm7.114 5.943c0-.616-.28-1.093-.841-1.433s-1.393-.659-2.498-.959v5.09c2.226-.157 3.339-1.057 3.339-2.699z"/><path id="J" d="M251.154 318.616c.037.234-.221.492-.796.683l-1.499.238c-.605-.004-.93-.169-.968-.409s.221-.492.794-.688l1.499-.238c.606.01.931.169.97.415z"/><path id="K" d="M257.678 317.581c.037.234-.221.492-.796.683l-1.499.238c-.605-.004-.93-.169-.968-.409s.221-.492.794-.688l1.499-.238c.606.009.931.169.97.415z"/><path id="L" d="M352.004 293.704c.234-.037.492.221.683.796l.238 1.499c-.004.605-.169.93-.409.968s-.492-.221-.688-.794l-.238-1.5c.009-.606.169-.931.415-.969z"/><path id="M" d="M348.9 274.129c.234-.037.492.221.683.796l.238 1.5c-.004.605-.169.93-.409.968s-.492-.221-.688-.794l-.238-1.5c.009-.606.169-.931.415-.97z"/><path id="N" d="M347.865 267.605c.234-.037.492.221.683.796l.238 1.499c-.004.605-.169.93-.409.968s-.492-.221-.688-.794l-.238-1.499c.009-.606.169-.931.415-.97z"/><path id="O" d="M336.068 228.189c-.037-.234.221-.492.796-.683l1.499-.238c.605.004.93.169.968.409s-.221.492-.794.688l-1.499.238c-.606-.009-.931-.169-.97-.415z"/><path id="P" d="M329.544 229.223c-.037-.234.221-.492.796-.683l1.499-.238c.605.004.93.169.968.409s-.221.492-.794.688l-1.499.238c-.606-.01-.931-.169-.97-.415z"/><path id="Q" d="M316.887 122.791a2.19 2.19 0 0 1-2.174-2.173 2.19 2.19 0 0 1 2.174-2.19c1.207 0 2.19.983 2.19 2.19 0 1.19-.984 2.173-2.19 2.173z"/><path id="R" d="M326.597 122.791c-1.19 0-2.173-.983-2.173-2.173a2.19 2.19 0 0 1 2.173-2.19c1.208 0 2.19.983 2.19 2.19a2.19 2.19 0 0 1-2.19 2.173z"/><path id="S" d="M287.738 127.982a2.19 2.19 0 0 1-2.173-2.173 2.19 2.19 0 0 1 2.173-2.19c1.208 0 2.191.983 2.191 2.19 0 1.19-.984 2.173-2.191 2.173z"/><path id="T" d="M297.449 131.346a2.19 2.19 0 0 1-2.174-2.173c0-1.207.984-2.19 2.174-2.19 1.207 0 2.19.983 2.19 2.19 0 1.19-.984 2.173-2.19 2.173z"/><path id="U" d="M326.597 114.219a2.19 2.19 0 0 1-2.173-2.173 2.19 2.19 0 0 1 2.173-2.19c1.208 0 2.19.983 2.19 2.19a2.19 2.19 0 0 1-2.19 2.173z"/><path id="V" d="M108.046 86.965a1.22 1.22 0 0 1 .913.215l6.826 4.912c.55.396.675 1.161.279 1.711l-4.912 6.826c-.395.549-1.162.674-1.711.279l-6.826-4.912c-.55-.396-.675-1.161-.279-1.711l4.912-6.826a1.22 1.22 0 0 1 .798-.494zm5.312 6.401l-4.836-3.48-3.48 4.836 4.836 3.48 3.48-4.836z"/><path id="W" d="M232.086 308.825h-33.013c-.296 0-.535-.24-.535-.536v-9.204c0-.296.239-.536.535-.536h33.013c.296 0 .535.24.535.536v9.204c0 .296-.239.536-.535.536zm-32.478-1.071h31.942v-8.133h-31.942v8.133z"/></defs></svg>