<svg width="128" height="128" xmlns="http://www.w3.org/2000/svg">
 <title/>

 <g>
  <title>background</title>
  <rect fill="none" id="canvas_background" height="402" width="582" y="-1" x="-1"/>
 </g>
 <g>
  <title>Layer 1</title>
  <path id="svg_2" fill="#263B7E" d="m31.23161,1.549101l65.09418,0c16.41506,0 29.7221,12.81715 29.7221,28.62791l0,0c0,15.81077 -13.307,28.62791 -29.7221,28.62791l-65.09418,0c-16.41506,0 -29.7221,-12.81714 -29.7221,-28.62791l0,0c0,-15.81076 13.30704,-28.62791 29.7221,-28.62791z"/>
  <path id="svg_3" fill="#263B7E" d="m97.54181,1.549101a28.628,28.628 0 1 1 -28.6876,28.64781a28.62974,28.62974 0 0 1 28.6876,-28.64781z"/>
  <ellipse id="svg_4" fill="#ffffff" ry="26.14113" rx="26.18091" cy="29.754311" cx="97.54181"/>

 </g>
</svg>