<svg width="128" height="128" xmlns="http://www.w3.org/2000/svg">
 <title/>

 <g>
  <title>background</title>
  <rect fill="none" id="canvas_background" height="402" width="582" y="-1" x="-1"/>
 </g>
 <g>
  <title>Layer 1</title>
  
  <path stroke="#ffffff" id="svg_5" fill="#e2e8ee" d="m31.67421,66.318167l65.09418,0c16.41506,0 29.7221,12.81714 29.7221,28.62791l0,0c0,15.81077 -13.307,28.62791 -29.7221,28.62791l-65.09418,0c-16.41506,0 -29.7221,-12.81714 -29.7221,-28.62791l0,0c0,-15.81077 13.30704,-28.62791 29.7221,-28.62791z"/>
  <path id="svg_6" fill="#e2e8ee" d="m30.45819,66.318167a28.628,28.628 0 1 0 28.6876,28.64783a28.62974,28.62974 0 0 0 -28.6876,-28.64783z"/>
  <ellipse id="svg_7" fill="#ffffff" ry="26.14113" rx="26.18091" cy="94.965977" cx="30.45819"/>
 </g>
</svg>