<svg width="512" height="512" xmlns="http://www.w3.org/2000/svg">

 <g>
  <title>background</title>
  <rect fill="none" id="canvas_background" height="402" width="582" y="-1" x="-1"/>
 </g>
 <g>
  <title>Layer 1</title>
  <path id="svg_2" fill="#515151" d="m463.609,119.578l-87.156,-87.188c54.844,-20.594 94,-18 99.594,-12.422c5.594,5.595 8.156,44.735 -12.438,99.61zm-239.375,348.203c-0.125,0.733 -0.219,1.422 -0.219,2.141c0,3.156 1.5,6.188 4.094,8.094c3.188,2.392 7.469,2.642 10.938,0.688c70.563,-39.594 101.531,-79.484 118,-107.531c4.094,-7.016 10.969,-20.844 10.969,-41.155l0,-41.768c-36.188,34.078 -79.5,63.531 -120.625,82.828l-23.157,96.703zm-198.132,-195.797c0.719,0 1.406,-0.078 2.125,-0.234l96.594,-23.094c19.203,-40.953 48.656,-83.906 83.422,-120.656l-42.234,0c-20.313,0 -34.156,6.844 -41.156,10.969c-28.063,16.438 -67.953,47.406 -107.531,118c-1.969,3.453 -1.719,7.719 0.688,10.922c1.888,2.593 4.92,4.093 8.092,4.093zm103.031,127.141c-9.453,20.797 -25.938,32.453 -38.797,38.656c-16.969,8.156 -33.328,9.858 -41.484,9.375c-0.5,-8.156 1.219,-24.517 9.375,-41.484c6.203,-12.859 17.844,-29.344 38.641,-38.781l-0.078,-0.078c-2.813,-2.828 -4.797,-6.155 -6.375,-9.625c-1.828,0.672 -3.625,1.345 -5.656,2.017c-67.891,22.625 -75.813,105.219 -64.5,116.531c11.313,11.312 93.906,3.405 116.547,-64.484c0.656,-1.969 1.313,-3.719 1.953,-5.5c-3.516,-1.594 -6.781,-3.766 -9.594,-6.578l-0.032,-0.049zm229.945,-359.5l97.594,97.594c-17.188,38.813 -45.656,83.813 -91.563,129.719c-50.781,50.797 -116.875,90.453 -168.383,104.781l-72.438,-72.453c14.406,-51.438 54.25,-117.266 105.039,-168.078c45.939,-45.922 90.939,-74.407 129.751,-91.563zm-15.875,113.188c-12.813,-12.813 -33.563,-12.813 -46.375,0c-12.813,12.813 -12.813,33.578 0,46.391c12.813,12.797 33.563,12.797 46.375,0c12.813,-12.813 12.813,-33.579 0,-46.391zm-237.523,186.484c-1.766,5.281 -0.391,11.109 3.547,15.063l32.406,32.392c3.938,3.953 9.781,5.328 15.063,3.563l25.313,-8.438l-67.891,-67.892l-8.438,25.312z"/>
 </g>
</svg>