<svg width="100" height="100" xmlns="http://www.w3.org/2000/svg">

 <g>
  <title>background</title>
  <rect fill="none" id="canvas_background" height="402" width="582" y="-1" x="-1"/>
 </g>
 <g>
  <title>Layer 1</title>
  <path fill="#3c4257" id="XMLID_5_" d="m98.6,8.97313c0.3,-2.4 -1.4,-4.5 -3.8,-4.8l-23.7,-3c-2.4,-0.3 -4.5,1.4 -4.8,3.8c-0.3,2.4 1.4,4.5 3.8,4.8l12.9,1.6l-33,25.6l-5.6,-9.5c-0.7,-1.1 -1.8,-2 -3.1,-2.2c-1.3,-0.3 -2.7,0.1 -3.7,0.9l-34.5,26.7c-2,1.6 -2.4,4.5 -0.8,6.5c0.8,1 1.9,1.6 3.1,1.8c1.2,0.1 2.4,-0.2 3.4,-0.9l30.1,-23.4l5.6,9.5c0.7,1.1 1.8,2 3.1,2.2c1.3,0.3 2.7,-0.1 3.7,-0.9l37.4,-29l-1.6,13.3c-0.1,1.2 0.2,2.3 0.9,3.2c0.7,0.9 1.7,1.5 2.9,1.6c1.1,0.1 2.3,-0.2 3.2,-0.9c0.9,-0.7 1.5,-1.8 1.6,-2.9l2.9,-24z"/>
  <rect fill="#3c4257" y="55.1" x="55.1" width="15.7" id="XMLID_4_" height="43.9"/>
  <rect fill="#3c4257" y="61.9" x="30.4" width="15.7" id="XMLID_3_" height="37.1"/>
  <rect fill="#3c4257" y="45.4" x="79.1" width="15.7" id="XMLID_2_" height="53.6"/>
  <rect fill="#3c4257" y="68.8" x="6.8" width="15.7" id="XMLID_1_" height="30.2"/>
 </g>
</svg>