<svg width="512" height="512" xmlns="http://www.w3.org/2000/svg">

 <g>
  <title>background</title>
  <rect fill="none" id="canvas_background" height="402" width="582" y="-1" x="-1"/>
 </g>
 <g>
  <title>Layer 1</title>
  <path id="svg_4" fill-rule="evenodd" fill="#3b4259" d="m454.495,191.676c15.397,15.387 23.101,34.002 23.111,55.848l0,18.934c-0.011,21.848 -7.714,40.465 -23.111,55.85c-15.391,15.393 -34.012,23.094 -55.863,23.104c-0.47,0.006 -0.927,0.006 -1.367,0c-6.944,21.725 -19.116,41.297 -36.512,58.721l-0.069,0.066c-4.815,4.807 -9.808,9.205 -14.974,13.193l-0.069,0.07c-16.603,12.867 -34.925,21.615 -54.974,26.248c-0.985,1.852 -2.283,3.58 -3.899,5.197c-4.263,4.24 -9.391,6.357 -15.385,6.357l-30.769,0c-5.97,0 -11.076,-2.117 -15.315,-6.357c-4.241,-4.238 -6.362,-9.344 -6.359,-15.314l0,-0.137c-0.003,-5.967 2.118,-11.072 6.359,-15.311c4.239,-4.242 9.346,-6.361 15.315,-6.357l30.769,0c5.994,-0.004 11.122,2.115 15.385,6.357c0.646,0.646 1.239,1.305 1.779,1.98c15.531,-4.029 29.8,-11.092 42.805,-21.189c4.409,-3.41 8.67,-7.17 12.785,-11.279c17.434,-17.43 28.673,-37.412 33.71,-59.949c0.051,-0.508 0.12,-1.031 0.203,-1.572l0.069,-0.342c1.479,-7.389 2.321,-15.023 2.529,-22.9l0,-82.781c0.003,-9.123 -0.839,-17.919 -2.529,-26.386l-0.069,-0.342c-0.083,-0.519 -0.152,-1.021 -0.203,-1.504c-5.037,-22.538 -16.276,-42.521 -33.71,-59.95c-4.115,-4.13 -8.376,-7.912 -12.785,-11.347c-21.651,-16.789 -46.79,-25.175 -75.42,-25.156c-28.63,-0.019 -53.769,8.367 -75.419,25.156c-4.41,3.435 -8.672,7.217 -12.786,11.347c-17.412,17.43 -28.627,37.412 -33.641,59.95c-0.078,0.483 -0.168,0.985 -0.275,1.504l-0.067,0.342c-1.691,8.467 -2.535,17.263 -2.532,26.386l0,114.636c0,2.537 -0.844,4.77 -2.529,6.699c-1.675,1.971 -3.771,3.154 -6.29,3.555c-1.736,0.271 -3.47,0.318 -5.198,0.137c-1.25,0.191 -2.548,0.283 -3.897,0.271c-21.851,-0.01 -40.473,-7.711 -55.862,-23.104c-15.398,-15.385 -23.101,-34.002 -23.112,-55.85l0,-18.934c0.011,-21.846 7.714,-40.461 23.112,-55.848c11.383,-11.389 24.535,-18.566 39.452,-21.533c7.671,-25.091 21.506,-47.624 41.504,-67.605c32.449,-32.453 71.629,-48.676 117.54,-48.67c45.933,-0.005 85.137,16.218 117.607,48.67c19.997,19.981 33.832,42.515 41.503,67.605c14.918,2.967 28.069,10.145 39.453,21.534z" clip-rule="evenodd"/>
  <path id="svg_6" fill-rule="evenodd" fill="#3b4259" d="m177.435,141.569c3.697,-3.708 7.524,-7.104 11.488,-10.185c15.628,-12.124 33.314,-19.302 53.058,-21.533c4.538,-0.513 9.188,-0.764 13.95,-0.753c25.443,-0.059 47.78,7.369 67.009,22.286c0.857,0.667 1.701,1.351 2.529,2.051c3.077,2.52 6.063,5.23 8.958,8.134l0.067,0c15.313,15.332 25.274,32.877 29.88,52.635c0.051,0.438 0.12,0.895 0.205,1.367c0.029,0.159 0.054,0.318 0.069,0.479l0.067,0.342c1.479,7.425 2.229,15.125 2.257,23.104c-31.816,-3.476 -59.645,-16.577 -83.485,-39.306c-32.567,26.432 -70.628,39.647 -114.188,39.647c-8.336,0 -16.472,-0.479 -24.412,-1.436c0.096,-7.597 0.849,-14.935 2.257,-22.011l0.069,-0.273l0,-0.068c0.161,-0.708 0.297,-1.392 0.409,-2.051c4.595,-19.674 14.531,-37.151 29.813,-52.429z" clip-rule="evenodd"/>
  <path id="svg_8" fill-rule="evenodd" fill="#3b4259" d="m187.486,243.559c3.673,-3.624 8.093,-5.446 13.267,-5.469c5.171,0.022 9.591,1.845 13.264,5.469c3.654,3.594 5.478,7.969 5.47,13.125c0.008,5.133 -1.816,9.484 -5.47,13.055c-3.673,3.625 -8.093,5.445 -13.264,5.469c-5.173,-0.023 -9.594,-1.844 -13.267,-5.469c-3.654,-3.57 -5.478,-7.922 -5.47,-13.055c-0.008,-5.156 1.816,-9.531 5.47,-13.125z" clip-rule="evenodd"/>
  <path id="svg_10" fill-rule="evenodd" fill="#3b4259" d="m293.127,256.684c-0.008,-5.156 1.816,-9.531 5.471,-13.125c3.672,-3.624 8.093,-5.446 13.267,-5.469c5.149,0.022 9.546,1.845 13.194,5.469c3.678,3.594 5.523,7.969 5.539,13.125c-0.016,5.133 -1.861,9.484 -5.539,13.055c-3.648,3.625 -8.045,5.445 -13.194,5.469c-5.174,-0.023 -9.595,-1.844 -13.267,-5.469c-3.655,-3.571 -5.479,-7.922 -5.471,-13.055z" clip-rule="evenodd"/>
  <path id="svg_12" fill-rule="evenodd" fill="#3b4259" d="m292.238,365.235c-9.886,9.752 -21.921,14.627 -36.101,14.629c-14.25,-0.002 -26.421,-4.877 -36.515,-14.629c-6.434,-6.393 -10.694,-13.662 -12.786,-21.805l98.734,0c-2.259,8.143 -6.703,15.412 -13.332,21.805z" clip-rule="evenodd"/>
 </g>
</svg>